<svg width="12" height="16" viewBox="0 0 12 16" fill="none" xmlns="http://www.w3.org/2000/svg">
<g clip-path="url(#clip0_435_1358)">
<path d="M10.8569 14.0951C11.1725 14.0951 11.4285 14.3508 11.4285 14.6664C11.4285 14.982 11.1728 15.2379 10.8572 15.238L0.952456 15.2409C0.636862 15.241 0.380859 14.9852 0.380859 14.6696C0.380859 14.354 0.636532 14.0981 0.95212 14.098L10.8569 14.0951ZM5.82713 0.0088786L5.90467 0.00366211C6.19396 0.00366211 6.43304 0.218637 6.47088 0.497551L6.4761 0.575091L6.47534 11.0017L9.31099 8.16721C9.51389 7.96439 9.83137 7.94595 10.0551 8.11197L10.1191 8.16728C10.322 8.37018 10.3404 8.68766 10.1744 8.91136L10.1191 8.97544L6.31131 12.7824C6.10853 12.9851 5.79129 13.0036 5.5676 12.8378L5.50351 12.7826L1.69136 8.97567C1.46805 8.75266 1.4678 8.39083 1.69081 8.16751C1.89354 7.96454 2.21099 7.94588 2.4348 8.11167L2.49893 8.16698L5.33248 10.9964L5.33324 0.575091C5.33324 0.285799 5.54821 0.0467166 5.82713 0.0088786L5.90467 0.00366211L5.82713 0.0088786Z" fill="#909399"/>
</g>
<defs>
<clipPath id="clip0_435_1358">
<rect width="11.4286" height="16" fill="white"/>
</clipPath>
</defs>
</svg>
