<svg width="49" height="48" viewBox="0 0 49 48" fill="none" xmlns="http://www.w3.org/2000/svg">
<path d="M22.1055 32.5561C22.4714 32.1895 22.4714 31.5963 22.1055 31.2297C21.7393 30.8642 21.1461 30.8642 20.7795 31.2297C20.414 31.5963 20.414 32.1895 20.7795 32.5561C21.1461 32.9216 21.7393 32.9216 22.1055 32.5561Z" fill="#F5B458"/>
<path d="M10.8423 47.7226C11.2056 48.0889 11.797 48.0929 12.1651 47.7303L16.709 43.2538C17.481 42.4818 17.7157 41.3389 17.3763 40.3453L18.3537 39.4027C18.8799 38.8944 19.5728 38.6142 20.3052 38.6142H32.7648C34.9753 38.6142 37.0645 37.7654 38.6484 36.224C38.7135 36.1606 38.1536 36.8202 47.1485 26.0697C48.4826 24.4913 48.283 22.1212 46.7032 20.7856C45.1332 19.4625 42.7814 19.6526 41.4436 21.2038L35.9131 26.8882C35.2148 26.0287 34.1498 25.4929 32.9992 25.4929H22.5479C21.0607 24.8707 19.4827 24.5558 17.8545 24.5558C13.3428 24.5558 9.40128 26.6388 7.28568 30.5484C6.39469 30.3796 5.45499 30.6491 4.77896 31.3252L0.320344 35.797C-0.0436701 36.1621 -0.0444025 36.7528 0.318879 37.1186L10.8423 47.7226ZM17.8542 26.43C19.2897 26.43 20.6777 26.719 21.9803 27.2888C22.0989 27.3408 22.2267 27.3675 22.356 27.3675H32.9992C34.0154 27.3675 34.8738 28.1963 34.8738 29.2418C34.8738 30.2756 34.033 31.1164 32.9992 31.1164H25.3523C24.8349 31.1164 24.4152 31.5361 24.4152 32.0536C24.4152 32.5714 24.8349 32.9907 25.3523 32.9907H32.9992C35.0664 32.9907 36.7481 31.3091 36.7481 29.2418C36.7481 29.077 36.7364 28.9137 36.7151 28.7518C42.0651 23.2524 42.8195 22.4797 42.8517 22.4413C43.5197 21.6528 44.7055 21.5528 45.4943 22.2179C46.2839 22.8855 46.3838 24.0705 45.714 24.8634L37.3077 34.9129C36.0801 36.0914 34.4684 36.74 32.7648 36.74H20.3052C19.0843 36.74 17.9285 37.2069 17.0518 38.0539L16.2553 38.8226L8.91275 31.4804C10.6288 28.2611 13.8489 26.43 17.8542 26.43ZM6.10538 32.6498C6.41446 32.3407 6.88907 32.285 7.2659 32.5179C7.40909 32.6051 15.4255 40.6412 15.4749 40.7075C15.7492 41.077 15.71 41.6018 15.3888 41.9233L11.5151 45.7396L2.30594 36.4602L6.10538 32.6498Z" fill="#F5B458"/>
<path d="M35.9212 18.6304H33.8344V15.693C33.8344 13.7271 33.5471 12.094 32.9724 10.7935C32.4054 9.48544 31.6152 8.51007 30.6021 7.86739C29.5889 7.21715 28.4207 6.89203 27.0976 6.89203C25.8198 6.89203 24.6743 7.21715 23.6611 7.86739C22.6479 8.51763 21.8427 9.49678 21.2454 10.8048C20.6556 12.1053 20.3608 13.7347 20.3608 15.693V18.6304H18.2739V15.6816C18.2815 13.3982 18.6595 11.4475 19.4081 9.82946C20.1566 8.21141 21.1925 6.9752 22.5156 6.12081C23.8464 5.26642 25.3737 4.83922 27.0976 4.83922C28.8668 4.83922 30.4131 5.26642 31.7362 6.12081C33.0594 6.9752 34.0877 8.21141 34.8211 9.82946C35.5545 11.4475 35.9212 13.3982 35.9212 15.6816V18.6304ZM28.1637 1.20996V18.6304H26.0428V1.20996H28.1637Z" fill="#F5B458" stroke="#F5B458" stroke-width="0.2"/>
</svg>
