<svg width="48" height="48" viewBox="0 0 48 48" fill="none" xmlns="http://www.w3.org/2000/svg">
<path fill-rule="evenodd" clip-rule="evenodd" d="M36.351 43.4128C36.351 42.9182 36.7519 42.5172 37.2465 42.5172C37.7412 42.5172 38.1421 42.9182 38.1421 43.4128V44.3518C38.1421 46.3635 36.5056 48 34.4938 48H3.64819C1.63638 48 0 46.3636 0 44.3518V10.8374C0 9.86324 0.37968 8.94645 1.06846 8.25767L8.25758 1.06855C8.94635 0.379781 9.86323 0 10.8373 0H34.4938C36.5056 0 38.1421 1.63647 38.142 3.64819V12.9311C38.142 13.4257 37.7411 13.8267 37.2465 13.8267C36.7518 13.8267 36.3509 13.4258 36.3509 12.9311V3.64828C36.3509 2.62447 35.5176 1.79123 34.4937 1.79123H10.8372C10.7551 1.79123 10.6735 1.79707 10.5927 1.80808V7.9906C10.5927 9.4256 9.4256 10.5927 7.9906 10.5927H1.808C1.79697 10.6736 1.79114 10.7551 1.79114 10.8373V44.3517C1.79114 45.3755 2.62446 46.2088 3.64819 46.2088H34.4938C35.5177 46.2088 36.351 45.3754 36.351 44.3517V43.4128ZM1.59279 10.8373C1.59279 10.7264 1.60233 10.6171 1.61989 10.5097C1.6023 10.6171 1.59274 10.7265 1.59274 10.8375V44.3519C1.59274 45.4853 2.51487 46.4073 3.64814 46.4073H34.4938C35.1554 46.4073 35.7448 46.0931 36.121 45.6062C35.7448 46.093 35.1553 46.4071 34.4938 46.4071H3.64819C2.51492 46.4071 1.59279 45.4851 1.59279 44.3517V10.8373ZM37.2465 42.7157C36.9517 42.7157 36.6997 42.8986 36.5977 43.1571C36.6996 42.8985 36.9517 42.7155 37.2465 42.7155C37.6317 42.7155 37.9438 43.0277 37.9438 43.4128V44.3518C37.9438 44.3895 37.9431 44.4271 37.9419 44.4645C37.9431 44.4272 37.9437 44.3896 37.9437 44.352V43.413C37.9437 43.0279 37.6316 42.7157 37.2465 42.7157ZM1.20866 8.39812C0.844004 8.76277 0.571051 9.1947 0.401373 9.66593C0.571044 9.19463 0.844004 8.76263 1.20871 8.39792L8.39783 1.2088C9.0494 0.557231 9.91584 0.198347 10.8373 0.198347H34.4938C36.3961 0.198347 37.9438 1.74601 37.9437 3.64819V12.9311C37.9437 12.9563 37.9423 12.9811 37.9398 13.0055C37.9423 12.9812 37.9436 12.9564 37.9436 12.9313V3.64839C37.9437 1.74621 36.3961 0.198541 34.4938 0.198541H10.8373C9.91579 0.198541 9.04935 0.557425 8.39778 1.209L1.20866 8.39812ZM10.3943 1.64226L10.3944 1.64225V7.9906C10.3944 8.10702 10.386 8.22153 10.37 8.33358C10.386 8.2216 10.3943 8.10715 10.3943 7.99079V1.64226ZM7.9906 8.99994H2.57903L2.57884 9.00013H7.99055C8.42564 9.00013 8.7973 8.72341 8.93881 8.33672C8.79725 8.72331 8.42562 8.99994 7.9906 8.99994ZM8.80159 3.05774L3.05774 8.80159H7.9906C8.4376 8.80159 8.80159 8.4376 8.80159 7.9906V3.05774ZM32.2313 6.56904V8.8315C32.2313 9.80288 31.4414 10.5929 30.4699 10.5928H30.4699H20.6233C20.1286 10.5928 19.7277 10.1918 19.7277 9.69719C19.7277 9.20265 20.1286 8.80162 20.6233 8.80162H30.44V6.59882H16.1846V8.80171H17.3636C17.8582 8.80171 18.2591 9.20264 18.2591 9.69728C18.2591 10.1918 17.8582 10.5929 17.3636 10.5929H16.1547C15.1833 10.5929 14.3934 9.80292 14.3934 8.8315V6.56904C14.3934 5.59763 15.1833 4.80759 16.1547 4.80759H30.4698C31.4414 4.80759 32.2313 5.59762 32.2313 6.56904ZM19.9261 9.69719C19.9261 9.78523 19.9424 9.86945 19.9721 9.94701C19.9424 9.86951 19.9261 9.78535 19.9261 9.69738C19.9261 9.31237 20.2383 9.00016 20.6234 9.00016H30.4699C30.5629 9.00016 30.6385 8.92457 30.6385 8.83169V6.56923C30.6385 6.54813 30.6346 6.52793 30.6275 6.5093C30.6345 6.52787 30.6384 6.54801 30.6384 6.56904V8.8315C30.6384 8.92438 30.5628 8.99997 30.4698 8.99997H20.6233C20.2382 8.99997 19.9261 9.31218 19.9261 9.69719ZM30.4699 5.00613C30.9444 5.00613 31.3701 5.21861 31.657 5.5534C31.3701 5.21851 30.9444 5.00594 30.4698 5.00594H16.1547C15.2928 5.00594 14.5917 5.70716 14.5917 6.56904V8.8315C14.5917 9.02512 14.6271 9.21063 14.6917 9.3819C14.6271 9.21068 14.5918 9.02524 14.5918 8.83169V6.56923C14.5918 5.70735 15.2929 5.00613 16.1548 5.00613H30.4699ZM17.3636 9.00006C17.6524 9.00006 17.9002 9.17563 18.006 9.42588C17.9001 9.17573 17.6524 9.00026 17.3637 9.00026H16.1548C16.0829 9.00026 16.0214 8.95499 15.9972 8.89148C16.0214 8.95489 16.0829 9.00006 16.1547 9.00006H17.3636ZM6.14818 16.876H23.9979C24.4927 16.876 24.8936 17.277 24.8936 17.7715C24.8936 18.2661 24.4927 18.6671 23.998 18.6671H6.14818C5.65354 18.6671 5.25261 18.2662 5.25261 17.7715C5.25261 17.277 5.65352 16.876 6.14818 16.876ZM24.6952 17.7712C24.6952 17.7314 24.6919 17.6924 24.6855 17.6544C24.6919 17.6925 24.6952 17.7316 24.6952 17.7715C24.6952 18.1565 24.3831 18.4688 23.998 18.4688H6.14818C5.81122 18.4688 5.53013 18.2298 5.46513 17.9121C5.53024 18.2296 5.81127 18.4685 6.14813 18.4685H23.998C24.3831 18.4685 24.6952 18.1563 24.6952 17.7712ZM6.14813 21.9736H23.9979C24.3831 21.9736 24.6952 22.2858 24.6952 22.6708C24.6952 22.705 24.6928 22.7387 24.688 22.7716C24.6928 22.7386 24.6952 22.7049 24.6952 22.6707C24.6952 22.2856 24.3831 21.9734 23.9979 21.9734H6.14818C5.83522 21.9734 5.57046 22.1796 5.48226 22.4635C5.57052 22.1797 5.83524 21.9736 6.14813 21.9736ZM6.14818 21.7751H23.9979C24.4927 21.7751 24.8936 22.1761 24.8936 22.6707C24.8936 23.1652 24.4927 23.5662 23.998 23.5662H6.14818C5.65352 23.5662 5.25261 23.1652 5.25261 22.6707C5.25261 22.1761 5.65352 21.7751 6.14818 21.7751ZM6.14818 28.2675C5.80289 28.2675 5.51628 28.0165 5.46071 27.6871C5.5164 28.0163 5.80295 28.2672 6.14813 28.2672H23.998C24.3831 28.2672 24.6952 27.955 24.6952 27.57C24.6952 27.5399 24.6933 27.5102 24.6896 27.4812C24.6933 27.5103 24.6952 27.5401 24.6952 27.5702C24.6952 27.9553 24.3831 28.2675 23.998 28.2675H6.14818ZM6.14818 26.6747H23.9979C24.4927 26.6747 24.8936 27.0757 24.8936 27.5702C24.8936 28.0648 24.4927 28.4658 23.998 28.4658H6.14818C5.65352 28.4658 5.25261 28.0648 5.25261 27.5702C5.25261 27.0757 5.65352 26.6747 6.14818 26.6747ZM23.998 31.7723C24.3831 31.7723 24.6952 32.0845 24.6952 32.4696C24.6952 32.4903 24.6943 32.5109 24.6925 32.5312C24.6943 32.5108 24.6952 32.4902 24.6952 32.4694C24.6952 32.0843 24.3831 31.7721 23.998 31.7721H6.14818C5.84725 31.7721 5.59091 31.9628 5.49322 32.2299C5.59096 31.9629 5.84727 31.7723 6.14813 31.7723H23.998ZM23.998 31.5738C24.4927 31.5738 24.8936 31.9747 24.8936 32.4694C24.8936 32.964 24.4927 33.3649 23.998 33.3649H6.14818C5.65352 33.3649 5.25261 32.9639 5.25261 32.4694C5.25261 31.9748 5.65352 31.5738 6.14818 31.5738H23.998ZM15.7931 39.65C15.7931 39.2649 15.481 38.9527 15.0959 38.9527H6.14814C5.84727 38.9527 5.59096 39.1433 5.49322 39.4103C5.59091 39.1432 5.84725 38.9525 6.14818 38.9525H15.0959C15.481 38.9525 15.7932 39.2648 15.7932 39.6498C15.7932 39.6708 15.7922 39.6917 15.7904 39.7123C15.7922 39.6918 15.7931 39.671 15.7931 39.65ZM5.25261 39.6498C5.25261 39.1552 5.65352 38.7542 6.14818 38.7542H15.0959C15.5906 38.7542 15.9915 39.1552 15.9915 39.6498C15.9915 40.1443 15.5906 40.5453 15.0959 40.5453H6.14818C5.65352 40.5453 5.25261 40.1443 5.25261 39.6498ZM47.1437 22.6843C47.4123 23.5111 47.2856 24.3972 46.7962 25.1156C46.4715 25.5923 46.4715 26.2082 46.7965 26.6846C47.2859 27.403 47.4125 28.2892 47.1439 29.1159C46.8754 29.9426 46.252 30.5852 45.4338 30.8786C44.891 31.0733 44.5288 31.5716 44.5115 32.1481C44.4873 32.9475 44.1209 33.6984 43.5063 34.2083C43.1008 34.5448 42.6137 34.7554 42.1041 34.8257V41.1739C42.1041 41.7095 41.8137 42.2046 41.346 42.4658C40.8785 42.7271 40.3046 42.715 39.8484 42.4342L37.2913 40.86C37.2683 40.8458 37.2435 40.8342 37.2018 40.86L34.6446 42.4342C34.1881 42.7153 33.614 42.7269 33.147 42.4659C32.6794 42.2048 32.3889 41.7097 32.3889 41.174V34.8259C31.8791 34.7555 31.392 34.5449 30.9865 34.2083C30.372 33.6984 30.0057 32.9474 29.9815 32.1482C29.9642 31.5717 29.602 31.0735 29.0592 30.8787C28.241 30.5852 27.6176 29.9427 27.3491 29.116C27.0805 28.2893 27.2071 27.4031 27.6965 26.6847C28.0212 26.2081 28.0212 25.5922 27.6965 25.1155C27.2071 24.3972 27.0805 23.511 27.3491 22.6842C27.6176 21.8576 28.241 21.215 29.0592 20.9216C29.602 20.7268 29.9641 20.2286 29.9815 19.6521C30.0079 18.7833 30.4262 17.992 31.1294 17.481C31.8328 16.9701 32.7149 16.8166 33.5491 17.0602C34.1026 17.2216 34.6884 17.0314 35.0414 16.5753C35.5734 15.8878 36.3771 15.4934 37.2464 15.4934C38.1157 15.4934 38.9194 15.8878 39.4513 16.5753C39.8042 17.0313 40.3897 17.2218 40.9436 17.0602C41.7778 16.8168 42.6599 16.9701 43.3631 17.481C44.0665 17.992 44.485 18.7834 44.5113 19.6522C44.5286 20.2287 44.8907 20.727 45.4335 20.9217C46.2517 21.2151 46.8751 21.8576 47.1437 22.6843ZM38.0221 39.6725L40.5792 41.2467C40.6366 41.2822 40.7094 41.2417 40.7094 41.1739V34.6935C40.2301 34.638 39.7547 34.8329 39.4513 35.2251C38.9194 35.9126 38.1157 36.3069 37.2465 36.3069C36.3771 36.3069 35.5735 35.9126 35.0414 35.2251C34.738 34.833 34.2627 34.638 33.7833 34.6935V41.1739C33.7833 41.2413 33.8552 41.2821 33.9134 41.2466L36.4706 39.6725C36.9464 39.3794 37.5467 39.3799 38.0221 39.6725ZM45.8175 28.6851C45.9517 28.272 45.8885 27.8291 45.6438 27.47C44.994 26.5164 44.994 25.284 45.6438 24.3303C45.8885 23.9713 45.9517 23.5283 45.8175 23.1151C45.6831 22.7019 45.3717 22.3808 44.9627 22.2341C43.8765 21.8446 43.1522 20.8475 43.1173 19.6942C43.1043 19.26 42.8951 18.8644 42.5435 18.609C42.192 18.3536 41.7513 18.2769 41.3342 18.3987C40.2263 18.7219 39.0545 18.3411 38.3483 17.4285C38.0824 17.0849 37.6807 16.8879 37.2463 16.8879C36.8117 16.8879 36.4101 17.085 36.1441 17.4286C35.4381 18.3411 34.2657 18.722 33.1583 18.3987C32.741 18.2771 32.3003 18.3537 31.9489 18.6091C31.5974 18.8644 31.3884 19.26 31.3753 19.6943C31.3403 20.8476 30.616 21.8446 29.5298 22.2342C29.1209 22.3809 28.8093 22.702 28.6751 23.1152C28.5408 23.5285 28.6041 23.9714 28.8488 24.3305C29.4984 25.2841 29.4984 26.5163 28.8488 27.47C28.6041 27.829 28.5408 28.272 28.6751 28.6851C28.8094 29.0983 29.1209 29.4194 29.5298 29.5661C30.616 29.9557 31.3403 30.9527 31.3753 32.1061C31.3874 32.5114 31.5657 32.8769 31.8769 33.1352C32.2239 33.4233 32.6964 33.5362 33.1584 33.4016C33.4203 33.3252 33.6858 33.2881 33.9478 33.2881C34.7942 33.2881 35.605 33.6748 36.1441 34.3718C36.4101 34.7154 36.8119 34.9124 37.2463 34.9124C37.6807 34.9124 38.0825 34.7153 38.3483 34.3718C39.0546 33.4593 40.2267 33.0785 41.3343 33.4017C41.7919 33.5352 42.2657 33.4257 42.6156 33.1353C42.9268 32.877 43.105 32.5115 43.1174 32.1061C43.1522 30.9527 43.8765 29.9557 44.9627 29.5662C45.3717 29.4195 45.6832 29.0983 45.8175 28.6851ZM31.6657 24.1645C32.4066 21.787 34.6282 20.0563 37.2464 20.0563C40.4686 20.0563 43.0902 22.6778 43.0902 25.9002C43.0902 26.0953 43.0805 26.2883 43.0617 26.4786C43.0805 26.2884 43.0901 26.0955 43.0901 25.9004C43.0901 22.678 40.4686 20.0565 37.2464 20.0565C34.6282 20.0565 32.4067 21.7871 31.6657 24.1645ZM37.2464 30.3498C34.7929 30.3498 32.7969 28.3538 32.7969 25.9004C32.7969 25.6704 32.8145 25.4445 32.8483 25.2238C32.8145 25.4444 32.797 25.6703 32.797 25.9002C32.797 28.3536 34.793 30.3496 37.2464 30.3496C39.0959 30.3496 40.6855 29.2153 41.356 27.6057C40.6856 29.2154 39.0959 30.3498 37.2464 30.3498ZM37.2464 19.858C33.9145 19.858 31.2042 22.5683 31.2042 25.9002C31.2042 29.232 33.9145 31.9424 37.2464 31.9424C40.5782 31.9424 43.2885 29.232 43.2885 25.9002C43.2885 22.5683 40.5782 19.858 37.2464 19.858ZM37.2464 30.1512C34.9025 30.1512 32.9953 28.244 32.9953 25.9002C32.9953 23.5565 34.9025 21.6492 37.2464 21.6492C39.5903 21.6492 41.4974 23.5564 41.4974 25.9002C41.4974 28.2441 39.5902 30.1512 37.2464 30.1512Z" fill="#F5B458"/>
</svg>
