<svg width="48" height="48" viewBox="0 0 48 48" fill="none" xmlns="http://www.w3.org/2000/svg">
<g clip-path="url(#clip0_435_1142)">
<path d="M45.1876 0H11.8123C11.0667 0.000866161 10.3519 0.297449 9.82463 0.824682C9.2974 1.35192 9.00079 2.06675 8.99992 2.81237V6C8.99992 6.24853 9.09865 6.48689 9.27438 6.66263C9.45012 6.83836 9.68849 6.93709 9.93703 6.93709C10.1856 6.93709 10.4239 6.83836 10.5997 6.66263C10.7754 6.48689 10.8741 6.24853 10.8741 6V2.81237C10.8744 2.56392 10.9732 2.32573 11.1489 2.15006C11.3245 1.97438 11.5628 1.87556 11.8112 1.87527H45.1865C45.4349 1.87556 45.6731 1.97438 45.8487 2.15006C46.0244 2.32573 46.1233 2.56392 46.1236 2.81237V45.1876C46.1233 45.4361 46.0244 45.6743 45.8487 45.85C45.6731 46.0256 45.4349 46.1244 45.1865 46.1247H11.8112C11.5628 46.1244 11.3245 46.0256 11.1489 45.85C10.9732 45.6743 10.8744 45.4361 10.8741 45.1876V42.156C10.8738 41.9076 10.7751 41.6694 10.5994 41.4937C10.4237 41.318 10.1855 41.2192 9.93703 41.2189C9.68858 41.2192 9.45046 41.318 9.27478 41.4937C9.09911 41.6694 9.00021 41.9076 8.99992 42.156V45.1876C9.00079 45.9333 9.2974 46.6481 9.82463 47.1753C10.3519 47.7026 11.0667 47.9991 11.8123 48H45.1876C45.9332 47.9991 46.648 47.7026 47.1752 47.1753C47.7024 46.6481 47.9991 45.9333 47.9999 45.1876V2.81237C47.9991 2.06675 47.7024 1.35192 47.1752 0.824682C46.648 0.297449 45.9332 0.000866161 45.1876 0ZM40.6777 36.1876H18.181C17.9325 36.1876 17.6941 36.2864 17.5184 36.4621C17.3427 36.6378 17.2439 36.8762 17.2439 37.1247C17.2439 37.3733 17.3427 37.6116 17.5184 37.7874C17.6941 37.9631 17.9325 38.0618 18.181 38.0618H40.681C40.9296 38.0618 41.1679 37.9631 41.3437 37.7874C41.5194 37.6116 41.6181 37.3733 41.6181 37.1247C41.6181 37.0014 41.5938 36.8793 41.5465 36.7654C41.4992 36.6515 41.4298 36.548 41.3425 36.461C41.2551 36.3739 41.1515 36.3049 41.0374 36.258C40.9233 36.2111 40.801 36.1872 40.6777 36.1876ZM41.3399 41.3378C41.1638 41.1623 40.9253 41.0634 40.6766 41.0629C40.428 41.0637 40.1896 41.1625 40.0133 41.3378C39.8381 41.5142 39.7394 41.7525 39.7385 42.0011C39.7394 42.2497 39.8381 42.488 40.0133 42.6644C40.1897 42.8396 40.428 42.9384 40.6766 42.9393C40.9253 42.9387 41.1638 42.8399 41.3399 42.6644C41.5153 42.4881 41.614 42.2497 41.6148 42.0011C41.6143 41.7521 41.5156 41.5133 41.3399 41.3367V41.3378ZM36.8433 41.0629H18.181C17.9325 41.0629 17.6941 41.1616 17.5184 41.3374C17.3427 41.5131 17.2439 41.7515 17.2439 42C17.2439 42.2485 17.3427 42.4869 17.5184 42.6626C17.6941 42.8384 17.9325 42.9371 18.181 42.9371H36.8475C36.9706 42.9371 37.0925 42.9129 37.2062 42.8658C37.3199 42.8187 37.4232 42.7497 37.5102 42.6626C37.5972 42.5756 37.6663 42.4723 37.7134 42.3586C37.7605 42.2449 37.7846 42.1231 37.7846 42C37.7846 41.8766 37.7602 41.7544 37.7129 41.6404C37.6655 41.5264 37.5962 41.4229 37.5087 41.3358C37.4212 41.2488 37.3174 41.1798 37.2032 41.133C37.089 41.0862 36.9667 41.0623 36.8433 41.0629ZM24.7473 8.22655C22.0646 8.22943 19.4927 9.29639 17.5958 11.1933C15.6989 13.0902 14.6319 15.6621 14.6291 18.3447C14.6284 19.7232 14.9103 21.0872 15.4572 22.3526C16.0042 23.6179 16.8046 24.7578 17.8091 25.7018C17.8427 25.7382 17.8792 25.7717 17.9182 25.8022C19.7804 27.5145 22.2185 28.4639 24.7483 28.4618C27.2782 28.4639 29.7162 27.5145 31.5785 25.8022C31.6174 25.7716 31.6539 25.7381 31.6876 25.7018C32.692 24.7577 33.4924 23.6179 34.0393 22.3525C34.5862 21.0872 34.8682 19.7232 34.8676 18.3447C34.8644 15.6619 33.797 13.0899 31.8997 11.1932C30.0024 9.29649 27.4301 8.22995 24.7473 8.22764V8.22655ZM24.7473 26.5866C22.8941 26.5886 21.0949 25.9629 19.6428 24.8116C20.132 23.8826 20.8665 23.1055 21.7664 22.5646C22.6664 22.0238 23.6973 21.7399 24.7473 21.744C25.7972 21.7399 26.8282 22.0238 27.7281 22.5646C28.628 23.1055 29.3624 23.8826 29.8516 24.8116C28.3998 25.9637 26.6006 26.5901 24.7473 26.5887V26.5866ZM22.7737 17.8964V17.1687C22.7743 16.6455 22.9825 16.1439 23.3525 15.7739C23.7224 15.404 24.224 15.1959 24.7473 15.1953C25.2705 15.1959 25.7721 15.404 26.1421 15.7739C26.512 16.1439 26.7201 16.6455 26.7207 17.1687V17.8964C26.7201 18.4196 26.512 18.9212 26.1421 19.2912C25.7721 19.6611 25.2705 19.8692 24.7473 19.8698C24.2244 19.8692 23.723 19.6614 23.3531 19.292C22.9832 18.9225 22.7749 18.4214 22.7737 17.8986V17.8964ZM31.2228 23.4382C30.3741 22.0849 29.1201 21.0339 27.6393 20.4349C28.2558 19.7348 28.5956 18.8337 28.5949 17.9007V17.1731C28.5937 16.1527 28.1878 15.1744 27.4663 14.4529C26.7448 13.7314 25.7665 13.3255 24.7461 13.3244C23.7259 13.3258 22.7479 13.7318 22.0266 14.4533C21.3054 15.1748 20.8996 16.1529 20.8985 17.1731V17.9007C20.8978 18.8336 21.2376 19.7347 21.8541 20.4349C20.3726 21.035 19.1185 22.0876 18.2705 23.4426C17.124 21.9921 16.5013 20.1968 16.5033 18.348C16.5056 16.1626 17.3748 14.0673 18.9201 12.5219C20.4655 10.9766 22.5606 10.1074 24.7461 10.1051C26.9314 10.1077 29.0266 10.977 30.5719 12.5223C32.1172 14.0675 32.9864 16.1627 32.989 18.348C32.9907 20.196 32.3684 21.9903 31.2228 23.4404V23.4382ZM24.7473 3.74837C20.8782 3.75443 17.1693 5.29408 14.4334 8.02992C11.6976 10.7657 10.158 14.4746 10.152 18.3436C10.1517 20.5559 10.6551 22.7392 11.6237 24.7282C12.5924 26.7171 14.001 28.4595 15.7429 29.8233L4.86214 40.704C4.53386 41.0318 4.0889 41.2159 3.62501 41.2159C3.16113 41.2159 2.71617 41.0318 2.38789 40.704C2.22485 40.542 2.0957 40.3492 2.00769 40.1368C1.91968 39.9245 1.87459 39.6968 1.87519 39.4669C1.87453 39.237 1.91955 39.0093 2.00756 38.797C2.09557 38.5846 2.2248 38.3918 2.38789 38.2298L7.95163 32.6662C8.1275 32.4903 8.22622 32.2517 8.22622 32.0029C8.22622 31.7542 8.1275 31.5156 7.95163 31.3396C7.77574 31.1641 7.53735 31.0655 7.28885 31.0655C7.04036 31.0655 6.80197 31.1641 6.62608 31.3396L1.06247 36.9033C0.724881 37.239 0.457249 37.6384 0.275049 38.0782C0.0928494 38.5181 -0.00032273 38.9897 0.000990248 39.4658C-0.00032273 39.9419 0.0928494 40.4136 0.275049 40.8534C0.457249 41.2933 0.724881 41.6926 1.06247 42.0284C1.39872 42.3652 1.79818 42.6322 2.23794 42.8142C2.6777 42.9962 3.14909 43.0895 3.62501 43.0887C4.10094 43.0895 4.57233 42.9962 5.01209 42.8142C5.45185 42.6322 5.85131 42.3652 6.18756 42.0284L17.3149 30.9011C19.5629 32.2381 22.1305 32.9426 24.7461 32.94C28.6155 32.9342 32.3249 31.3945 35.061 28.6584C37.7971 25.9223 39.3367 22.2131 39.3424 18.3436C39.3358 14.475 37.7959 10.7667 35.0602 8.03132C32.3244 5.29596 28.6159 3.75661 24.7473 3.75055V3.74837ZM24.7473 31.0647C21.3746 31.061 18.141 29.7195 15.7562 27.3347C13.3713 24.9498 12.0299 21.7163 12.0262 18.3436C12.0299 14.9709 13.3713 11.7375 15.7562 9.35261C18.141 6.96776 21.3746 5.6263 24.7473 5.62254C28.12 5.6263 31.3534 6.96776 33.7382 9.35261C36.1231 11.7375 37.4646 14.9709 37.4684 18.3436C37.4652 21.7167 36.1239 24.9507 33.739 27.3361C31.3541 29.7214 28.1203 31.0632 24.7473 31.0669V31.0647ZM10.9025 28.3887C10.7266 28.2134 10.4886 28.1147 10.2402 28.1138C9.99157 28.1145 9.7533 28.2133 9.57707 28.3887C9.40189 28.5647 9.30303 28.8026 9.30208 29.0509C9.30274 29.2996 9.40162 29.538 9.57707 29.7142C9.7533 29.8896 9.99157 29.9884 10.2402 29.9891C10.4885 29.9881 10.7265 29.8894 10.9025 29.7142C11.0782 29.5382 11.177 29.2997 11.1773 29.0509C11.1762 28.8033 11.0774 28.5661 10.9025 28.3909V28.3887Z" fill="#F5B458"/>
</g>
<defs>
<clipPath id="clip0_435_1142">
<rect width="48" height="48" fill="white"/>
</clipPath>
</defs>
</svg>
