<svg width="48" height="48" viewBox="0 0 48 48" fill="none" xmlns="http://www.w3.org/2000/svg">
<path d="M26.1298 7.63731C22.6057 7.18094 18.9703 7.88725 15.8928 9.62537C15.4419 9.88 15.2828 10.4518 15.5375 10.9027C15.792 11.3536 16.3639 11.5127 16.8148 11.2579C22.5067 8.04362 29.7143 9.03053 34.3425 13.6587C40.0447 19.3609 40.0447 28.6393 34.3425 34.3415C31.5802 37.1039 27.9075 38.6252 24.001 38.6252C20.0946 38.6252 16.4219 37.1039 13.6596 34.3416C9.03149 29.7137 8.04431 22.506 11.2588 16.8139C11.5134 16.3631 11.3543 15.7913 10.9035 15.5367C10.4526 15.2819 9.88077 15.4411 9.62615 15.892C7.88812 18.9694 7.18209 22.605 7.63818 26.1289C8.10909 29.7681 9.73284 33.0665 12.3337 35.6674C15.4502 38.7839 19.5937 40.5002 24.001 40.5002C28.4083 40.5002 32.5519 38.7839 35.6683 35.6674C42.1016 29.234 42.1016 18.7663 35.6683 12.3329C33.0674 9.73197 29.769 8.10822 26.1298 7.63731Z" fill="#F5B458"/>
<path d="M24 13.5C29.7897 13.5 34.5 18.2103 34.5 24C34.5 24.5177 34.9197 24.9375 35.4375 24.9375C35.9553 24.9375 36.375 24.5177 36.375 24C36.375 17.1764 30.8236 11.625 24 11.625C23.4822 11.625 23.0625 12.0448 23.0625 12.5625C23.0625 13.0802 23.4822 13.5 24 13.5Z" fill="#F5B458"/>
<path d="M24 36.375C24.5178 36.375 24.9375 35.9552 24.9375 35.4375C24.9375 34.9198 24.5178 34.5 24 34.5C18.2103 34.5 13.5 29.7897 13.5 24C13.5 23.4823 13.0803 23.0625 12.5625 23.0625C12.0447 23.0625 11.625 23.4823 11.625 24C11.625 30.8236 17.1764 36.375 24 36.375Z" fill="#F5B458"/>
<path d="M47.0625 18.5625H44.7728C44.2777 16.6646 43.5265 14.8522 42.5325 13.1574L44.1526 11.5373C44.3284 11.3616 44.4272 11.1231 44.4272 10.8744C44.4272 10.6258 44.3284 10.3874 44.1526 10.2115L37.7887 3.8475C37.6129 3.67172 37.3744 3.57291 37.1257 3.57291C36.8771 3.57291 36.6386 3.67172 36.4628 3.8475L34.8428 5.46769C33.1478 4.47356 31.3354 3.72234 29.4375 3.22734V0.9375C29.4375 0.419813 29.0178 0 28.5 0H19.5C18.9822 0 18.5625 0.419813 18.5625 0.9375V3.22734C16.6646 3.72234 14.8522 4.47356 13.1573 5.46759L11.5373 3.84741C11.3615 3.67163 11.123 3.57281 10.8743 3.57281C10.6257 3.57281 10.3872 3.67163 10.2114 3.84741L3.8475 10.2114C3.67172 10.3873 3.57291 10.6257 3.57291 10.8743C3.57291 11.123 3.67172 11.3615 3.8475 11.5373L5.46759 13.1572C4.47356 14.8521 3.72234 16.6645 3.22725 18.5625H0.9375C0.419719 18.5625 0 18.9823 0 19.5V28.5C0 29.0177 0.419719 29.4375 0.9375 29.4375H3.22725C3.72225 31.3355 4.47347 33.1479 5.46759 34.8427L3.8475 36.4627C3.67172 36.6384 3.57291 36.8769 3.57291 37.1256C3.57291 37.3742 3.67172 37.6126 3.8475 37.7885L10.2114 44.1525C10.3872 44.3283 10.6257 44.4271 10.8743 44.4271C11.123 44.4271 11.3615 44.3283 11.5373 44.1525L13.1573 42.5323C14.8522 43.5264 16.6646 44.2776 18.5625 44.7726V47.0625C18.5625 47.5802 18.9822 48 19.5 48H28.5C29.0178 48 29.4375 47.5802 29.4375 47.0625V44.7727C31.3354 44.2777 33.1478 43.5264 34.8427 42.5324L36.4627 44.1526C36.6385 44.3284 36.877 44.4272 37.1257 44.4272C37.3743 44.4272 37.6128 44.3284 37.7886 44.1526L44.1525 37.7886C44.3283 37.6127 44.4271 37.3743 44.4271 37.1257C44.4271 36.877 44.3283 36.6385 44.1525 36.4627L42.5324 34.8427C43.5264 33.1479 44.2777 31.3355 44.7727 29.4376H47.0625C47.5803 29.4376 48 29.0178 48 28.5001V19.5001C48 18.9823 47.5803 18.5625 47.0625 18.5625ZM46.125 27.5625H44.0352C43.5963 27.5625 43.2161 27.867 43.1203 28.2953C42.6287 30.4938 41.766 32.5751 40.5563 34.4817C40.3212 34.8523 40.3747 35.3365 40.6851 35.6469L42.1638 37.1256L37.1257 42.1637L35.6469 40.685C35.3365 40.3747 34.8524 40.3211 34.4817 40.5563C32.5751 41.7659 30.4937 42.6286 28.2953 43.1203C27.867 43.216 27.5625 43.5963 27.5625 44.0352V46.125H20.4375V44.0352C20.4375 43.5963 20.1329 43.2161 19.7047 43.1203C17.5062 42.6287 15.4249 41.766 13.5183 40.5563C13.1476 40.3212 12.6635 40.3747 12.3531 40.685L10.8744 42.1637L5.83631 37.1256L7.31503 35.6469C7.62544 35.3365 7.67887 34.8523 7.44375 34.4817C6.23409 32.5752 5.37141 30.4938 4.87969 28.2953C4.78397 27.867 4.40372 27.5625 3.96478 27.5625H1.875V20.4375H3.96478C4.40372 20.4375 4.78387 20.133 4.87969 19.7047C5.37141 17.5062 6.234 15.4248 7.44375 13.5183C7.67887 13.1477 7.62544 12.6635 7.31503 12.3531L5.83631 10.8744L10.8744 5.83631L12.3531 7.31503C12.6635 7.62544 13.1477 7.67897 13.5183 7.44366C15.4249 6.23409 17.5063 5.37141 19.7047 4.87969C20.133 4.78397 20.4375 4.40372 20.4375 3.96478V1.875H27.5625V3.96478C27.5625 4.40372 27.8671 4.78387 28.2953 4.87969C30.4938 5.37131 32.5751 6.234 34.4817 7.44366C34.8525 7.67897 35.3365 7.62534 35.6469 7.31503L37.1257 5.83631L42.1638 10.8744L40.6851 12.3531C40.3747 12.6635 40.3212 13.1477 40.5563 13.5183C41.766 15.4249 42.6287 17.5062 43.1203 19.7047C43.216 20.133 43.5963 20.4375 44.0352 20.4375H46.125V27.5625Z" fill="#F5B458"/>
<path d="M12.9961 13.9329C13.2427 13.9329 13.4845 13.8325 13.6589 13.6581C13.8333 13.4838 13.9336 13.2419 13.9336 12.9954C13.9336 12.7488 13.8333 12.5069 13.6589 12.3325C13.4845 12.1582 13.2427 12.0579 12.9961 12.0579C12.7495 12.0579 12.5077 12.1581 12.3333 12.3325C12.1589 12.507 12.0586 12.7488 12.0586 12.9954C12.0586 13.2419 12.1589 13.4838 12.3333 13.6581C12.5077 13.8325 12.7495 13.9329 12.9961 13.9329Z" fill="#F5B458"/>
</svg>
