<svg width="14" height="12" viewBox="0 0 14 12" fill="none" xmlns="http://www.w3.org/2000/svg">
<path d="M12.5702 3.59008C12.5761 3.71127 12.5784 3.83291 12.5784 3.95592C12.5784 7.6923 9.73452 12 4.53431 12C2.93789 12 1.45127 11.5321 0.200195 10.7302C0.421617 10.7562 0.646227 10.7694 0.874482 10.7694C2.19937 10.7694 3.41855 10.3175 4.38579 9.55934C3.14883 9.53611 2.10506 8.71831 1.74513 7.59525C1.91735 7.62897 2.09458 7.64582 2.27682 7.64582C2.53469 7.64582 2.78436 7.61211 3.02172 7.54696C1.72782 7.28727 0.753293 6.14371 0.753293 4.77509C0.753293 4.76279 0.753293 4.75095 0.753749 4.73864C1.13463 4.9505 1.57064 5.07761 2.03444 5.09265C1.27541 4.58465 0.776529 3.72038 0.776529 2.73902C0.776529 2.221 0.915942 1.73488 1.15923 1.31755C2.55382 3.02787 4.63728 4.15365 6.98726 4.2712C6.93897 4.06481 6.91391 3.8484 6.91391 3.62698C6.91391 2.0661 8.17956 0.799988 9.74136 0.799988C10.5546 0.799988 11.289 1.14351 11.8048 1.69251C12.449 1.56631 13.054 1.33031 13.6003 1.00637C13.3884 1.66699 12.9406 2.221 12.3565 2.57045C12.9292 2.50211 13.4741 2.34994 13.9807 2.12533C13.6026 2.69346 13.1228 3.19143 12.5702 3.59008Z" fill="white"/>
</svg>
