<svg width="16" height="12" viewBox="0 0 16 12" fill="none" xmlns="http://www.w3.org/2000/svg">
<path fill-rule="evenodd" clip-rule="evenodd" d="M14.9552 2.22999C15.0202 2.29499 15.0202 2.35999 15.0202 2.42499C15.1502 3.07499 15.2802 4.43999 15.2802 5.99999C15.2802 7.27429 15.1501 8.41848 15.067 9.14912C15.0484 9.31293 15.0321 9.45595 15.0202 9.57499C14.9552 9.63999 14.9552 9.70499 14.9552 9.76999V9.83499C14.7602 10.42 14.2402 10.81 13.5902 10.81H13.7202C13.7202 10.81 11.1202 11.2 7.74019 11.2C4.2952 11.2 1.7602 10.81 1.7602 10.81H1.8902C1.2402 10.81 0.720195 10.42 0.525195 9.83499V9.76999C0.460195 9.70499 0.460195 9.63999 0.460195 9.57499C0.448291 9.45595 0.432027 9.31292 0.413398 9.14911C0.330311 8.41847 0.200195 7.27429 0.200195 5.99999C0.200195 4.72569 0.330311 3.5815 0.413398 2.85086C0.432027 2.68705 0.448291 2.54403 0.460195 2.42499C0.525195 2.35999 0.525195 2.29499 0.525195 2.22999V2.16499C0.720195 1.57999 1.2402 1.18999 1.8902 1.18999H1.7602C1.7602 1.18999 4.3602 0.799988 7.74019 0.799988C11.1852 0.799988 13.7202 1.18999 13.7202 1.18999H13.5902C14.2402 1.18999 14.7602 1.57999 14.9552 2.16499V2.22999ZM6.89521 8.5349L9.9502 6.3249C10.0802 6.2599 10.1452 6.1299 10.0802 5.9999C10.0802 5.8699 10.0152 5.7399 9.9502 5.6749L6.89521 3.4649C6.7652 3.3999 6.6352 3.3999 6.50521 3.4649C6.37521 3.5299 6.3102 3.6599 6.3102 3.7899V8.2099C6.3102 8.3399 6.37521 8.4699 6.50521 8.5349C6.57021 8.5999 6.6352 8.5999 6.7002 8.5999C6.7652 8.5999 6.8302 8.5999 6.89521 8.5349Z" fill="white"/>
</svg>
