<svg width="42" height="42" viewBox="0 0 42 42" fill="none" xmlns="http://www.w3.org/2000/svg">
<path d="M26.2226 25.6531C27.9795 24.1817 29.0072 22.1942 29.3973 20.9293C32.4695 20.9293 32.6743 14.953 30.2166 14.953C30.2166 14.953 30.3355 14.1352 30.3796 12.8753V11.0049M26.2226 25.6531C24.9049 26.7566 23.1769 27.5698 21 27.5698C15.9207 27.5698 13.2854 23.1428 12.6027 20.9293C9.53055 20.9293 9.3257 14.953 11.7834 14.953C11.7834 14.953 11.6645 14.1352 11.6204 12.8753V11.0049M26.2226 25.6531C26.2226 25.6531 26.9346 28.0935 28.1918 28.9216M13.8082 28.9216C15.0654 28.0935 15.7774 25.6531 15.7774 25.6531M13.8082 28.9216L10.7204 30.5999M13.8082 28.9216L21 32.2273M28.1918 28.9216L39.0483 34.8223C39.8719 35.3648 40.375 36.3354 40.375 37.3821C40.375 39.0352 39.1419 40.3753 37.6208 40.3753H23.5M28.1918 28.9216L31.2796 30.5999L23.5 36.0003L22.7988 34.9421M28.1918 28.9216L21 32.2273M10.7204 30.5999L18.5 36.0003L19.2012 34.9421M10.7204 30.5999L9.125 31.467M21 32.2273L19.2012 34.9421M21 32.2273L22.7988 34.9421M18.5 40.3753H23.5M18.5 40.3753L19.75 35.3753M18.5 40.3753H13.5M23.5 40.3753L22.25 35.3753M19.75 35.3753V35.3753C20.4907 35.9309 21.5093 35.9309 22.25 35.3753V35.3753M19.75 35.3753L19.2012 34.9421M22.25 35.3753L22.7988 34.9421M9.125 31.467L2.9517 34.8223C2.12807 35.3648 1.625 36.3354 1.625 37.3821C1.625 39.0352 2.8581 40.3753 4.37922 40.3753H13.5M9.125 31.467L13.5 40.3753M32.875 31.467L28.5 40.3753" stroke="#1A2E51" stroke-width="2.18804" stroke-linecap="round" stroke-linejoin="round"/>
<path d="M18.5003 13.4998C25.2996 11.5937 26.1186 9.31669 27.8753 5.37476L27.8908 5.46075C28.6622 9.73891 29.0997 12.1647 32.2503 13.4998C32.2503 13.4998 34.1253 1.62476 21.6253 1.62476C9.12528 1.62476 9.75028 13.4998 9.75028 13.4998C13.9802 12.9561 15.849 11.9363 18.5003 9.12475V13.4998Z" fill="#F5B458" stroke="#F5B458" stroke-width="2.18804" stroke-linecap="round" stroke-linejoin="round"/>
<path d="M17.406 15.9998C17.406 16.0859 17.3361 16.1557 17.25 16.1557C17.1639 16.1557 17.094 16.0859 17.094 15.9998C17.094 15.9136 17.1639 15.8438 17.25 15.8438C17.3361 15.8438 17.406 15.9136 17.406 15.9998ZM24.906 15.9998C24.906 16.0859 24.8361 16.1557 24.75 16.1557C24.6639 16.1557 24.594 16.0859 24.594 15.9998C24.594 15.9136 24.6639 15.8438 24.75 15.8438C24.8361 15.8438 24.906 15.9136 24.906 15.9998Z" fill="#1A2E51" stroke="#1A2E51" stroke-width="2.18804"/>
</svg>
