<svg width="42" height="42" viewBox="0 0 42 42" fill="none" xmlns="http://www.w3.org/2000/svg">
<path d="M26.2226 25.6528C27.9795 24.1815 29.0072 22.1939 29.3973 20.9291C32.4695 20.9291 32.6743 14.9527 30.2166 14.9527C30.2166 14.9527 30.3355 14.1349 30.3796 12.8751V11.0046M26.2226 25.6528C24.9049 26.7564 23.1769 27.5695 21 27.5695C15.9207 27.5695 13.2854 23.1426 12.6027 20.9291C9.53055 20.9291 9.3257 14.9527 11.7834 14.9527C11.7834 14.9527 11.6645 14.1349 11.6204 12.8751V11.0046M26.2226 25.6528C26.2226 25.6528 26.9346 28.0933 28.1918 28.9214M13.8082 28.9214L2.9517 34.822C2.12807 35.3645 1.625 36.3352 1.625 37.3818C1.625 39.035 2.8581 40.3751 4.37922 40.3751H37.6208C39.1419 40.3751 40.375 39.035 40.375 37.3818C40.375 36.3352 39.8719 35.3645 39.0483 34.822L28.1918 28.9214M13.8082 28.9214C15.0654 28.0933 15.7774 25.6528 15.7774 25.6528M13.8082 28.9214C19.1567 33.2555 22.2977 33.4063 28.1918 28.9214" stroke="#1A2E51" stroke-width="2.18804" stroke-linecap="round" stroke-linejoin="round"/>
<path d="M17.406 16.0002C17.406 16.0864 17.3361 16.1562 17.25 16.1562C17.1639 16.1562 17.094 16.0864 17.094 16.0002C17.094 15.9141 17.1639 15.8443 17.25 15.8443C17.3361 15.8443 17.406 15.9141 17.406 16.0002ZM24.906 16.0002C24.906 16.0864 24.8361 16.1562 24.75 16.1562C24.6639 16.1562 24.594 16.0864 24.594 16.0002C24.594 15.9141 24.6639 15.8443 24.75 15.8443C24.8361 15.8443 24.906 15.9141 24.906 16.0002Z" fill="#1A2E51" stroke="#1A2E51" stroke-width="2.18804"/>
<path d="M10.844 4.59377H31.156V8.81172C31.156 9.41593 30.6662 9.90574 30.062 9.90574H11.938C11.3338 9.90574 10.844 9.41593 10.844 8.81172V4.59377Z" fill="#F5B458" stroke="#F5B458" stroke-width="2.18804"/>
<path d="M3.5 16.6243V5.90998C3.5 3.54305 5.17893 1.62427 7.25 1.62427M20.9997 1.62427H6.93719C6.41943 1.62427 5.99969 2.044 5.99969 2.56177C5.99969 3.07953 6.41943 3.49927 6.93719 3.49927H20.9997M20.9997 1.62427H35.0622C35.58 1.62427 35.9997 2.044 35.9997 2.56177C35.9997 3.07953 35.58 3.49927 35.0622 3.49927H20.9997M20.9997 1.62427V3.49927" stroke="#1A2E51" stroke-width="2.18804" stroke-linecap="round" stroke-linejoin="round"/>
<path d="M1.34435 25.4078L3.49977 14.7502L5.6548 25.4078C5.77723 25.9083 5.22083 26.2983 4.79206 26.0125L4.68604 25.9418C4.41242 25.7594 4.04067 25.9031 3.96092 26.2221C3.84085 26.7024 3.1583 26.7024 3.03824 26.2221C2.95848 25.9031 2.58674 25.7594 2.31312 25.9418L2.20709 26.0125C1.77832 26.2983 1.22193 25.9083 1.34435 25.4078Z" fill="#F5B458" stroke="#F5B458" stroke-width="2.18804" stroke-linejoin="round"/>
</svg>
