<svg width="40" height="40" viewBox="0 0 40 40" fill="none" xmlns="http://www.w3.org/2000/svg">
<path d="M35 2.5V5.45833C35 6.93109 33.8061 8.125 32.3333 8.125H28.9167C27.4439 8.125 26.25 9.31891 26.25 10.7917V18.125M35 38.125V35.1667C35 33.6939 33.8061 32.5 32.3333 32.5H28.9167C27.4439 32.5 26.25 31.3061 26.25 29.8333V22.5M37.5 20H25.625M5 2.5V5.45833C5 6.93109 6.19391 8.125 7.66667 8.125H11.0833C12.5561 8.125 13.75 9.31891 13.75 10.7917V18.125M5 38.125V35.1667C5 33.6939 6.19391 32.5 7.66667 32.5H11.0833C12.5561 32.5 13.75 31.3061 13.75 29.8333V22.5M2.5 20H14.375" stroke="#1A2E51" stroke-width="2.18804" stroke-linecap="round" stroke-linejoin="round"/>
<path d="M29.3333 20C29.3333 25.1547 25.1547 29.3333 20 29.3333C14.8453 29.3333 10.6667 25.1547 10.6667 20C10.6667 14.8453 14.8453 10.6667 20 10.6667C25.1547 10.6667 29.3333 14.8453 29.3333 20Z" fill="#F5B458"/>
<path d="M37.5 2.5C37.5 3.88071 36.3807 5 35 5C33.6193 5 32.5 3.88071 32.5 2.5C32.5 1.11929 33.6193 0 35 0C36.3807 0 37.5 1.11929 37.5 2.5Z" fill="#F5B458"/>
<path d="M2.5 2.5C2.5 3.88071 3.61929 5 5 5C6.38071 5 7.5 3.88071 7.5 2.5C7.5 1.11929 6.38071 0 5 0C3.61929 0 2.5 1.11929 2.5 2.5Z" fill="#F5B458"/>
<path d="M37.5 37.5C37.5 38.8807 36.3807 40 35 40C33.6193 40 32.5 38.8807 32.5 37.5C32.5 36.1193 33.6193 35 35 35C36.3807 35 37.5 36.1193 37.5 37.5Z" fill="#F5B458"/>
<path d="M2.5 37.5C2.5 38.8807 3.61929 40 5 40C6.38071 40 7.5 38.8807 7.5 37.5C7.5 36.1193 6.38071 35 5 35C3.61929 35 2.5 36.1193 2.5 37.5Z" fill="#F5B458"/>
<path d="M40 20C40 21.3807 38.8807 22.5 37.5 22.5C36.1193 22.5 35 21.3807 35 20C35 18.6193 36.1193 17.5 37.5 17.5C38.8807 17.5 40 18.6193 40 20Z" fill="#F5B458"/>
<path d="M0 20C0 21.3807 1.11929 22.5 2.5 22.5C3.88071 22.5 5 21.3807 5 20C5 18.6193 3.88071 17.5 2.5 17.5C1.11929 17.5 0 18.6193 0 20Z" fill="#F5B458"/>
<circle cx="20.0003" cy="20.0009" r="5.33333" fill="#EFF1F2" stroke="#1A2E51" stroke-width="2.18804"/>
</svg>
