<svg width="40" height="40" viewBox="0 0 40 40" fill="none" xmlns="http://www.w3.org/2000/svg">
<path d="M11.25 7.50024V5.11388C11.25 4.36076 12.4107 2.50024 13.8426 2.50024H26.1574C27.5893 2.50024 28.75 4.36076 28.75 5.11388V7.50024" stroke="#F5B458" stroke-width="4.37608"/>
<path d="M1.875 17.5543V35.625C1.875 37.0057 2.99429 38.125 4.375 38.125H35.625C37.0057 38.125 38.125 37.0057 38.125 35.625V17.5543M1.875 17.5543L1.875 10.625C1.875 9.24429 2.99429 8.125 4.375 8.125H35.625C37.0057 8.125 38.125 9.24429 38.125 10.625V17.5543M1.875 17.5543H38.125" stroke="#1A2E51" stroke-width="2.18804"/>
<path d="M7.34402 12.5C7.34402 12.4139 7.41385 12.344 7.5 12.344C7.58615 12.344 7.65598 12.4139 7.65598 12.5V22.5C7.65598 22.5861 7.58615 22.656 7.5 22.656C7.41385 22.656 7.34402 22.5861 7.34402 22.5V12.5ZM16.094 16.25C16.094 16.1639 16.1639 16.094 16.25 16.094H23.75C23.8361 16.094 23.906 16.1639 23.906 16.25V18.75C23.906 18.8361 23.8361 18.906 23.75 18.906H16.25C16.1639 18.906 16.094 18.8361 16.094 18.75V16.25ZM32.344 12.5C32.344 12.4139 32.4139 12.344 32.5 12.344C32.5861 12.344 32.656 12.4139 32.656 12.5V22.5C32.656 22.5861 32.5861 22.656 32.5 22.656C32.4139 22.656 32.344 22.5861 32.344 22.5V12.5Z" fill="#F5B458" stroke="#F5B458" stroke-width="2.18804"/>
<path d="M17.5 17.4998H22.5" stroke="#1A2E51" stroke-width="2.18804" stroke-linecap="round" stroke-linejoin="round"/>
</svg>
