<svg width="68" height="44" viewBox="0 0 68 44" fill="none" xmlns="http://www.w3.org/2000/svg">
<path d="M13.5762 5.26447C13.4829 5.21478 13.3808 5.18393 13.2756 5.1737C13.1705 5.16347 13.0643 5.17406 12.9632 5.20485C12.8622 5.23565 12.7682 5.28605 12.6866 5.35318C12.605 5.42031 12.5374 5.50285 12.4877 5.5961L11.9832 6.54283C11.8829 6.73115 11.8614 6.95162 11.9236 7.15575C11.9858 7.35988 12.1265 7.53094 12.3148 7.63131C12.5032 7.73167 12.7236 7.75312 12.9278 7.69092C13.1319 7.62873 13.303 7.488 13.4033 7.29968L13.9078 6.35295C13.9575 6.2597 13.9883 6.15758 13.9986 6.05242C14.0088 5.94725 13.9982 5.8411 13.9674 5.74003C13.9366 5.63895 13.8862 5.54493 13.8191 5.46334C13.752 5.38174 13.6694 5.31417 13.5762 5.26447Z" fill="#F5B458"/>
<path d="M11.9368 8.34138C11.8435 8.29168 11.7414 8.26084 11.6362 8.25061C11.5311 8.24038 11.4249 8.25096 11.3238 8.28175C11.2228 8.31255 11.1288 8.36295 11.0472 8.43008C10.9656 8.49721 10.898 8.57976 10.8483 8.673L6.62287 16.6018C6.5225 16.7901 6.50106 17.0106 6.56325 17.2147C6.62544 17.4189 6.76618 17.5899 6.95449 17.6903C7.14281 17.7906 7.36328 17.8121 7.56741 17.7499C7.77154 17.6877 7.9426 17.547 8.04296 17.3587L12.2684 9.42971C12.3687 9.24141 12.3901 9.02097 12.3279 8.81687C12.2658 8.61278 12.125 8.44174 11.9368 8.34138Z" fill="#F5B458"/>
<path d="M58.6056 0.463039C58.5157 0.271257 58.3538 0.122667 58.155 0.049511C57.9562 -0.0236446 57.7366 -0.0154641 57.5438 0.0722777L43.8993 6.28101C43.661 6.37841 43.4449 6.52332 43.2644 6.70692C43.0838 6.89051 42.9426 7.10895 42.8492 7.34891C42.7558 7.58887 42.7122 7.84534 42.7211 8.10268C42.7301 8.36002 42.7913 8.61285 42.9011 8.84577L43.3273 9.74932L43.0942 9.84855C41.7102 10.1367 40.7475 10.0962 39.3192 9.69474L35.7585 8.69397C34.7227 8.40194 33.6241 8.4197 32.5982 8.74506L29.1617 9.83206C28.4674 10.0519 27.8235 10.4071 27.2672 10.8771C26.2888 10.5806 25.2605 10.4854 24.2444 10.5971L24.5894 9.94001C24.8128 9.51285 24.8655 9.01675 24.7368 8.5522C24.6081 8.08764 24.3077 7.68936 23.8964 7.43801C23.8907 7.43465 23.885 7.43117 23.8792 7.42795L11.4617 0.286834C11.3678 0.232802 11.2638 0.198319 11.1562 0.185452C11.0486 0.172586 10.9394 0.181603 10.8354 0.211962C10.7313 0.242321 10.6344 0.293396 10.5506 0.36212C10.4668 0.430844 10.3977 0.5158 10.3475 0.611888L0.0914435 20.2477C-0.00550234 20.4333 -0.0262862 20.6494 0.0335059 20.85C0.093298 21.0507 0.228956 21.2201 0.411669 21.3224L12.7732 28.2397C13.0561 28.4002 13.3758 28.4847 13.701 28.4851C13.8839 28.4848 14.0658 28.4583 14.2412 28.4064C14.485 28.3353 14.7118 28.2157 14.9081 28.0546C15.1045 27.8936 15.2661 27.6945 15.3834 27.4693L15.4975 27.252L16.7059 28.4684L14.909 30.9627C14.4591 31.5872 14.2757 32.3649 14.3992 33.1246C14.5226 33.8843 14.9428 34.5639 15.5673 35.0139L15.8526 35.2195C16.3454 35.5752 16.9379 35.7663 17.5456 35.7655C17.7253 35.7652 17.9046 35.7484 18.0812 35.7152C18.0843 35.7375 18.0851 35.7597 18.0887 35.7823C18.1488 36.1588 18.283 36.5197 18.4835 36.844C18.684 37.1683 18.9469 37.4497 19.2568 37.6717L19.5422 37.8773C20.0349 38.2331 20.6272 38.4243 21.2349 38.4237C21.4146 38.4234 21.5939 38.4066 21.7705 38.3734C21.7736 38.3957 21.7744 38.418 21.778 38.4405C21.8381 38.817 21.9723 39.1779 22.1728 39.5022C22.3733 39.8266 22.6362 40.1079 22.9461 40.3299L23.2315 40.5355C23.7241 40.8913 24.3164 41.0825 24.9241 41.082C25.1041 41.0816 25.2836 41.0647 25.4605 41.0314C25.5133 41.4201 25.6447 41.7941 25.8466 42.1304C26.0485 42.4668 26.3168 42.7585 26.635 42.9879L26.9204 43.1935C27.5452 43.6427 28.3226 43.8257 29.0822 43.7023C29.8417 43.5789 30.5213 43.1591 30.9716 42.5352L31.7977 41.3888L33.1211 42.4463C33.5813 42.8404 34.1412 43.1001 34.7394 43.1967C35.3375 43.2934 35.9508 43.2232 36.5117 42.994C37.0725 42.7647 37.5594 42.3853 37.9186 41.8974C38.2779 41.4095 38.4957 40.8319 38.548 40.2283C39.0213 40.3918 39.5255 40.4453 40.0225 40.3846C40.5195 40.3239 40.9961 40.1507 41.4161 39.8781C41.8361 39.6055 42.1883 39.2406 42.4461 38.8114C42.7038 38.3822 42.8603 37.8998 42.9035 37.401C43.3678 37.5613 43.8621 37.6158 44.3502 37.5605C44.8382 37.5051 45.3077 37.3413 45.7243 37.0809C46.1408 36.8206 46.4939 36.4705 46.7576 36.056C47.0213 35.6416 47.1889 35.1735 47.2483 34.6859C47.6634 34.8697 48.1123 34.9647 48.5662 34.9651C48.6494 34.9651 48.7332 34.962 48.817 34.9557C49.2506 34.924 49.6737 34.8068 50.0618 34.6109C50.45 34.4149 50.7955 34.1442 51.0785 33.8141L51.1198 33.7664C51.4105 33.4316 51.6286 33.0402 51.7604 32.6169C51.8921 32.1935 51.9346 31.7475 51.8851 31.3069C51.7851 30.4757 51.3743 29.7131 50.7351 29.1723L49.9327 28.4796C50.516 28.0748 51.0436 27.5949 51.5016 27.0524C51.6695 27.3293 51.9059 27.5583 52.188 27.7174C52.4701 27.8764 52.7884 27.9601 53.1123 27.9603C53.3736 27.9601 53.632 27.9061 53.8715 27.8017L53.8929 27.7922L67.5358 21.406C67.6798 21.3385 67.8006 21.2299 67.8831 21.0939C67.9656 20.9579 68.006 20.8006 67.9993 20.6417C67.9931 20.5294 67.9645 20.4194 67.9151 20.3184L58.6056 0.463039ZM14.0557 26.5357C14.0253 26.5937 13.9835 26.645 13.9329 26.6866C13.8823 26.7282 13.8238 26.7593 13.761 26.7779C13.6982 26.7966 13.6323 26.8025 13.5672 26.7952C13.5021 26.788 13.4391 26.7678 13.3819 26.7358L1.87964 20.2991L11.3854 2.09997L22.891 8.71663C22.999 8.77878 23.0786 8.88029 23.1133 8.99989C23.1481 9.11948 23.1351 9.24787 23.0773 9.35815L14.0557 26.5357ZM18.5983 33.6201C18.3975 33.898 18.0948 34.0849 17.7564 34.1399C17.418 34.1949 17.0716 34.1134 16.7932 33.9134L16.5078 33.7078C16.37 33.6085 16.2531 33.4831 16.1638 33.3387C16.0745 33.1942 16.0145 33.0336 15.9872 32.866C15.96 32.6984 15.9661 32.527 16.0051 32.3617C16.0441 32.1964 16.1153 32.0405 16.2146 31.9027L19.8497 26.857C20.0504 26.579 20.3531 26.3919 20.6916 26.3369C21.03 26.2819 21.3764 26.3635 21.6548 26.5637L21.9401 26.7693C22.078 26.8685 22.1949 26.9939 22.2842 27.1384C22.3735 27.2828 22.4335 27.4434 22.4607 27.611C22.488 27.7786 22.4819 27.95 22.4429 28.1152C22.4039 28.2805 22.3327 28.4365 22.2334 28.5742L18.5983 33.6201ZM22.2887 36.278C22.0877 36.556 21.7847 36.7429 21.4462 36.7979C21.1076 36.8529 20.7611 36.7714 20.4825 36.5713L20.1971 36.3657C19.9189 36.1653 19.7317 35.8625 19.6767 35.524C19.6217 35.1855 19.7034 34.839 19.9039 34.5608L22.5959 30.8241C22.7966 30.5462 23.0994 30.3593 23.4378 30.3043C23.7762 30.2493 24.1225 30.3307 24.401 30.5307L24.6863 30.7363C24.9644 30.9369 25.1516 31.2396 25.2068 31.578C25.2619 31.9164 25.1806 32.2629 24.9807 32.5414L22.2887 36.278ZM25.9764 38.936C25.7756 39.2139 25.4729 39.4009 25.1345 39.4559C24.7961 39.5109 24.4497 39.4294 24.1713 39.2294L23.8859 39.0237C23.6077 38.8232 23.4205 38.5204 23.3655 38.1819C23.3105 37.8434 23.3922 37.497 23.5926 37.2187L25.5131 34.553C25.7138 34.2751 26.0166 34.0882 26.355 34.0333C26.6934 33.9783 27.0397 34.0598 27.3181 34.2599L27.6035 34.4654C27.8814 34.6662 28.0684 34.9689 28.1234 35.3073C28.1784 35.6457 28.0969 35.9921 27.8968 36.2705L25.9764 38.936ZM30.8143 39.9995L29.6657 41.5939C29.4649 41.8719 29.1622 42.0588 28.8238 42.1138C28.4854 42.1689 28.139 42.0874 27.8606 41.8873L27.5752 41.6818C27.2973 41.481 27.1104 41.1783 27.0554 40.8399C27.0004 40.5015 27.0819 40.1551 27.2819 39.8767L28.4308 38.2823C28.6314 38.0043 28.9342 37.8173 29.2726 37.7623C29.6109 37.7073 29.9573 37.7888 30.2357 37.9889L30.5211 38.1944C30.7991 38.3951 30.9861 38.6978 31.0412 39.0362C31.0963 39.3746 31.0149 39.7211 30.8149 39.9995H30.8143ZM48.6374 27.3506L48.7281 27.4404L46.3237 25.3649C46.0287 25.1102 45.7426 24.8458 45.4655 24.5717L40.7446 19.9035C40.673 19.8331 40.5823 19.7853 40.4838 19.7663C40.3853 19.7472 40.2833 19.7577 40.1907 19.7964C40.0981 19.835 40.019 19.9002 39.9632 19.9837C39.9075 20.0671 39.8777 20.1652 39.8775 20.2655C39.9134 20.9256 40.1755 21.5531 40.6196 22.0427L44.3559 25.7367C44.6319 26.0097 44.9168 26.2729 45.2106 26.5266L49.7353 30.4349C49.9021 30.5781 50.0377 30.754 50.1338 30.9517C50.2298 31.1495 50.2842 31.3648 50.2937 31.5845C50.3067 32.0138 50.1548 32.4318 49.8692 32.7526L49.8612 32.762C49.7157 32.9321 49.5379 33.0717 49.3381 33.1728C49.1384 33.2739 48.9206 33.3344 48.6974 33.3509C48.4761 33.3684 48.2537 33.3415 48.0429 33.2718C47.8322 33.2022 47.6375 33.0912 47.4702 32.9454L42.6274 28.7616C42.4681 28.6197 42.2601 28.5449 42.0468 28.5528C41.8336 28.5607 41.6317 28.6507 41.4833 28.804C41.4104 28.8833 41.3543 28.9765 41.3181 29.078C41.2819 29.1795 41.2665 29.2872 41.2728 29.3948C41.279 29.5023 41.3068 29.6075 41.3545 29.7041C41.4022 29.8008 41.4688 29.8868 41.5504 29.9572L41.5596 29.9651L45.0864 33.0122C45.4246 33.3058 45.6323 33.7217 45.6639 34.1685C45.6955 34.6152 45.5483 35.0562 45.2547 35.3945C44.9611 35.7327 44.5452 35.9404 44.0984 35.972C43.6516 36.0035 43.2106 35.8563 42.8724 35.5628L39.342 32.513C39.2624 32.4418 39.1694 32.3872 39.0684 32.3524C38.9675 32.3175 38.8606 32.3031 38.754 32.31C38.6474 32.3169 38.5433 32.3449 38.4477 32.3925C38.352 32.44 38.2668 32.5061 38.197 32.587C38.1272 32.6678 38.0742 32.7617 38.041 32.8632C38.0079 32.9648 37.9953 33.0719 38.004 33.1783C38.0127 33.2848 38.0424 33.3884 38.0916 33.4832C38.1408 33.5781 38.2083 33.6621 38.2903 33.7306L40.7251 35.8338C40.8944 35.9783 41.0335 36.1549 41.1344 36.3534C41.2352 36.5518 41.2958 36.7683 41.3127 36.9903C41.3296 37.2123 41.3024 37.4354 41.2327 37.6469C41.163 37.8583 41.0522 38.0539 40.9067 38.2224C40.7611 38.3908 40.5837 38.5289 40.3847 38.6285C40.1856 38.7282 39.9688 38.7875 39.7467 38.803C39.5246 38.8186 39.3016 38.79 39.0906 38.7191C38.8796 38.6482 38.6847 38.5362 38.5171 38.3897L36.1079 36.3087C35.9485 36.1669 35.7405 36.0921 35.5273 36.1C35.3142 36.1079 35.1123 36.1979 34.9639 36.3511C34.891 36.4305 34.8348 36.5237 34.7987 36.6252C34.7625 36.7267 34.7471 36.8344 34.7533 36.9419C34.7596 37.0495 34.7874 37.1547 34.8351 37.2513C34.8828 37.3479 34.9493 37.434 35.0309 37.5044L36.3706 38.6616C36.7094 38.9547 36.918 39.3704 36.9504 39.8173C36.9828 40.2642 36.8363 40.7056 36.5432 41.0445C36.2501 41.3834 35.8344 41.5919 35.3875 41.6243C34.9407 41.6567 34.4992 41.5102 34.1604 41.2171L32.578 39.9518C32.7197 39.3883 32.6891 38.7952 32.4902 38.2493C32.2913 37.7033 31.9332 37.2296 31.4623 36.8892L31.1769 36.6837C30.7382 36.368 30.2194 36.1821 29.68 36.1473C29.8033 35.5929 29.7614 35.0146 29.5596 34.4838C29.3578 33.953 29.005 33.4929 28.5446 33.1604L28.2592 32.9548C27.8205 32.6391 27.3017 32.4532 26.7623 32.4184C26.8856 31.8641 26.8437 31.2858 26.642 30.755C26.4402 30.2242 26.0874 29.7642 25.627 29.4317L25.3415 29.2261C24.9319 28.931 24.4519 28.7487 23.9496 28.6976C24.1352 28.1149 24.1317 27.4883 23.9398 26.9077C23.7478 26.327 23.3772 25.8219 22.8808 25.4645L22.5955 25.2589C21.9706 24.8099 21.1932 24.627 20.4337 24.7504C19.6742 24.8738 18.9946 25.2934 18.5441 25.9172L17.6591 27.1453L16.2818 25.7589L23.3023 12.3914C24.2151 12.1489 25.1684 12.0989 26.1016 12.2446C25.9627 12.4736 25.8404 12.7123 25.7357 12.9588L22.902 20.7121C22.84 20.9013 22.8504 21.1069 22.9312 21.2889C23.012 21.4709 23.1574 21.6166 23.3393 21.6976L23.5649 21.7981C24.3861 22.1739 25.2894 22.3347 26.1898 22.2654C27.0903 22.1961 27.9583 21.899 28.7124 21.402C29.3639 20.9718 29.9109 20.4013 30.3134 19.7323C30.716 19.0634 30.9638 18.3128 31.0388 17.5357V17.534C31.0515 17.394 31.0772 17.2555 31.1154 17.1203C31.2361 16.7004 31.5303 15.9268 32.1131 15.672C32.2653 15.6066 32.4355 15.5961 32.5946 15.6422L33.9048 16.0118C34.4668 16.1703 34.9795 16.4689 35.3947 16.8794L37.3945 18.8566C37.8696 19.3259 38.335 19.3734 38.6569 19.1211C38.7474 19.0509 38.8219 18.9622 38.8753 18.8608C38.9288 18.7595 38.96 18.6479 38.9668 18.5336C38.9737 18.4192 38.956 18.3047 38.915 18.1977C38.874 18.0907 38.8107 17.9937 38.7292 17.9132L36.5269 15.736C35.9174 15.134 35.1654 14.6961 34.3411 14.4629L32.7305 14.0085C32.6586 13.9872 32.5838 13.9769 32.5088 13.9782C31.4592 13.9825 30.563 14.5744 29.9853 15.6447C29.7618 16.0658 29.5956 16.515 29.4911 16.9803C29.4722 17.0659 29.4588 17.1526 29.4508 17.2399L29.4374 17.3818C29.3849 17.921 29.2126 18.4418 28.9328 18.9058C28.6531 19.3698 28.2732 19.7655 27.8209 20.0637C27.359 20.3627 26.8371 20.5563 26.292 20.631C25.747 20.7057 25.1921 20.6596 24.6669 20.4959L27.2216 13.5782C27.4416 13.0562 27.7725 12.5882 28.1913 12.2067C28.6101 11.8252 29.1069 11.5393 29.6472 11.3688L33.0837 10.2817C33.8106 10.0512 34.5891 10.0386 35.3231 10.2455L38.8838 11.2464C40.6028 11.7291 41.8125 11.7718 43.5074 11.4084L44.0141 11.2082L50.7102 25.406C50.2002 26.2234 49.486 26.8936 48.638 27.3506H48.6374ZM53.7137 26.0988C53.5186 26.1902 53.2952 26.2004 53.0926 26.1272C52.8899 26.0542 52.7244 25.9037 52.6325 25.7088L44.6255 8.73098C44.5639 8.60032 44.5341 8.4569 44.5388 8.31251C44.5435 8.16813 44.5824 8.02692 44.6523 7.90051C44.7531 7.7247 44.908 7.58611 45.0939 7.50532L57.4845 1.86651L66.1223 20.2901L53.7137 26.0988Z" fill="#F5B458"/>
</svg>
