<svg width="48" height="45" viewBox="0 0 48 45" fill="none" xmlns="http://www.w3.org/2000/svg">
<g clip-path="url(#clip0_435_1025)">
<path d="M43.4253 9.80806H36.1187V7.78284C36.1185 7.5699 36.0337 7.36579 35.883 7.21531C35.7323 7.06484 35.5281 6.98031 35.3152 6.98031H34.7979V6.08578C34.7963 4.47275 34.1548 2.92625 33.0142 1.78566C31.8736 0.645076 30.3272 0.00357699 28.7141 0.00195312H19.2843C17.6712 0.00357699 16.1247 0.645076 14.9841 1.78566C13.8435 2.92625 13.202 4.47275 13.2004 6.08578V6.98031H12.6831C12.4703 6.98058 12.2661 7.0652 12.1155 7.21561C11.9649 7.36603 11.8801 7.56998 11.8796 7.78284V9.80806H9.2767C9.06394 9.80833 8.85995 9.89296 8.70951 10.0434C8.55907 10.1938 8.47442 10.3978 8.47415 10.6106C8.47442 10.8233 8.55907 11.0273 8.70951 11.1777C8.85995 11.3282 9.06394 11.4128 9.2767 11.4131H43.4222C44.208 11.415 44.9609 11.728 45.5165 12.2835C46.0721 12.8391 46.385 13.5921 46.3869 14.3778V20.6017C46.3865 21.2884 46.1483 21.9537 45.7127 22.4845C45.2772 23.0153 44.6712 23.3788 43.9978 23.5133L26.9444 26.6763H21.0569L4.00461 23.5163C3.32976 23.3828 2.72204 23.0195 2.28494 22.4882C1.84783 21.957 1.60839 21.2907 1.6073 20.6027V14.3788C1.60919 13.5931 1.92216 12.8402 2.47775 12.2846C3.03333 11.729 3.78622 11.416 4.57193 11.4141H5.99197C6.20473 11.4138 6.40872 11.3292 6.55917 11.1788C6.70961 11.0283 6.79426 10.8244 6.79453 10.6116C6.79426 10.3988 6.70961 10.1949 6.55917 10.0444C6.40872 9.89399 6.20473 9.80936 5.99197 9.80908H4.57193C3.35901 9.81044 2.19616 10.2929 1.33849 11.1505C0.480828 12.0082 -0.00157674 13.171 -0.00292969 14.384V20.6078C-0.00132269 21.329 0.170217 22.0396 0.497748 22.682C0.825278 23.3245 1.29957 23.8807 1.88222 24.3056V40.4102C1.88358 41.6231 2.36611 42.786 3.22377 43.6436C4.08143 44.5013 5.24429 44.9837 6.45721 44.9851H34.2275C34.4404 44.9848 34.6446 44.9 34.795 44.7494C34.9455 44.5987 35.03 44.3945 35.03 44.1815C35.0298 43.9688 34.9451 43.7648 34.7947 43.6144C34.6442 43.4639 34.4402 43.3793 34.2275 43.379H6.45721C5.67149 43.3771 4.91848 43.0642 4.3629 42.5086C3.80731 41.953 3.49434 41.2 3.49245 40.4143V25.0488C3.56504 25.0672 3.63449 25.0825 3.70298 25.0958L20.1798 28.1485V35.4959C20.1794 35.6671 20.2341 35.834 20.3357 35.9718C20.4373 36.1097 20.5805 36.2113 20.7441 36.2616L23.762 37.2052C23.8395 37.2293 23.92 37.2417 24.0011 37.242C24.0823 37.2417 24.1629 37.2293 24.2404 37.2052L27.2583 36.2616C27.4218 36.2111 27.5647 36.1094 27.6661 35.9716C27.7675 35.8337 27.822 35.667 27.8216 35.4959V28.1485L44.3065 25.0938C44.3709 25.0805 44.4374 25.0662 44.511 25.0488V40.4061C44.5091 41.1918 44.1962 41.9448 43.6406 42.5004C43.085 43.056 42.332 43.369 41.5463 43.3708H37.5459C37.333 43.3708 37.1287 43.4554 36.9781 43.6058C36.8274 43.7563 36.7426 43.9604 36.7423 44.1734C36.7423 44.3865 36.827 44.5909 36.9777 44.7416C37.1284 44.8923 37.3328 44.9769 37.5459 44.9769H41.5463C42.7592 44.9756 43.922 44.4931 44.7797 43.6355C45.6374 42.7778 46.1198 41.6149 46.1211 40.402V24.3035C46.7041 23.8787 47.1788 23.3223 47.5065 22.6797C47.8342 22.037 48.0058 21.3262 48.0073 20.6048V14.3809C48.0054 13.1671 47.5218 12.0037 46.6626 11.1462C45.8035 10.2888 44.6391 9.80751 43.4253 9.80806ZM19.2853 1.607H28.7151C29.9023 1.60835 31.0404 2.08055 31.8798 2.92C32.7193 3.75945 33.1916 4.8976 33.1929 6.08477V6.9793H31.7811V6.08477C31.7811 5.27136 31.4579 4.49126 30.8827 3.91609C30.3075 3.34093 29.5276 3.0178 28.7141 3.0178H27.1468C26.9339 3.0178 26.7297 3.10232 26.579 3.25279C26.4284 3.40327 26.3436 3.60739 26.3433 3.82032C26.3436 4.03326 26.4284 4.23739 26.579 4.38786C26.7297 4.53833 26.9339 4.62285 27.1468 4.62285H28.7141C29.1012 4.62339 29.4722 4.77736 29.7458 5.05103C30.0195 5.32469 30.1735 5.69571 30.174 6.08272V6.97725H29.6567C29.444 6.97752 29.24 7.06216 29.0895 7.2126C28.9391 7.36304 28.8544 7.56702 28.8542 7.77978V9.80806H19.1421V7.78182C19.1419 7.56889 19.057 7.36476 18.9064 7.21428C18.7557 7.06381 18.5515 6.9793 18.3386 6.9793H17.8213V6.08477C17.8218 5.69775 17.9758 5.32674 18.2495 5.05308C18.5231 4.77942 18.8941 4.62543 19.2811 4.62489H23.854C24.0669 4.62462 24.271 4.54001 24.4216 4.3896C24.5722 4.23918 24.657 4.03522 24.6576 3.82236C24.6573 3.60943 24.5725 3.40531 24.4218 3.25484C24.2712 3.10436 24.0669 3.01985 23.854 3.01985H19.2811C18.4677 3.01985 17.6876 3.34297 17.1125 3.91814C16.5373 4.4933 16.2142 5.2734 16.2142 6.08681V6.98134H14.8024V6.08681C14.8029 4.89823 15.2754 3.75852 16.1161 2.91826C16.9567 2.078 18.0967 1.60597 19.2853 1.60597V1.607ZM34.5127 8.58433V9.81113H30.4613V8.58433H34.5127ZM17.5421 8.58433V9.81113H13.4907V8.58433H17.5421ZM26.2176 32.4341V34.907L24.0033 35.5992L21.7889 34.907V32.4341H26.2176ZM26.2176 28.2845V30.827H21.7889V28.2845H26.2176Z" fill="#F5B458"/>
</g>
<defs>
<clipPath id="clip0_435_1025">
<rect width="48" height="44.9821" fill="white"/>
</clipPath>
</defs>
</svg>
