<svg width="212" height="52" viewBox="0 0 212 52" fill="none" xmlns="http://www.w3.org/2000/svg">
<g clip-path="url(#clip0_435_859)">
<path d="M0 48.0724H12.2105L22.4828 25.3428H10.2722L0 48.0724Z" fill="white"/>
<path d="M12.21 2.21387L32.7472 48.0723H44.965L24.4277 2.21387H12.21Z" fill="white"/>
<path d="M30.5332 2.21387L51.0704 48.0723H63.2882L42.751 2.21387H30.5332Z" fill="white"/>
<path d="M96.4427 39.6295H77.8292L64.8492 10.6567H83.4699L79.6877 2.21387H48.8564L69.3936 48.0723H100.225L96.4427 39.6295Z" fill="white"/>
<path d="M120.886 11.7856H122.894L118.229 1.45288H116.34L111.69 11.7856H113.668L114.686 9.39435H119.853L120.886 11.7856ZM115.336 7.88872L117.27 3.37182L119.218 7.88872H115.336ZM125.964 10.1619L132.046 2.7371V1.45288H123.529V3.0766H129.507L123.425 10.5014V11.7856H132.238V10.1619H125.964ZM135.914 10.1767V7.32779H140.904V5.74836H135.914V3.06184H141.538V1.45288H133.995V11.7856H141.745V10.1767H135.914ZM152.711 11.7856L150.335 8.39059C151.737 7.84443 152.534 6.69307 152.534 5.12839C152.534 2.84042 150.852 1.45288 148.135 1.45288H143.884V11.7856H145.803V8.77438H148.135C148.268 8.77438 148.401 8.77438 148.534 8.75962L150.645 11.7856H152.711ZM150.601 5.12839C150.601 6.42737 149.73 7.19494 148.047 7.19494H145.803V3.0766H148.047C149.73 3.0766 150.601 3.82942 150.601 5.12839ZM162.003 6.41261C162.8 5.98454 163.331 5.2022 163.331 4.1394C163.331 2.50092 162.003 1.45288 159.523 1.45288H154.681V11.7856H159.818C162.475 11.7856 163.863 10.7524 163.863 8.98104C163.863 7.63778 163.11 6.76687 162.003 6.41261ZM159.316 2.95851C160.645 2.95851 161.397 3.43087 161.397 4.39034C161.397 5.33505 160.645 5.8074 159.316 5.8074H156.6V2.95851H159.316ZM159.7 10.28H156.6V7.29827H159.7C161.147 7.29827 161.929 7.75587 161.929 8.78914C161.929 9.82242 161.147 10.28 159.7 10.28ZM173.645 11.7856H175.653L170.988 1.45288H169.099L164.449 11.7856H166.427L167.446 9.39435H172.612L173.645 11.7856ZM168.095 7.88872L170.029 3.37182L171.977 7.88872H168.095ZM176.967 11.7856H178.886V1.45288H176.967V11.7856ZM183.29 11.9333C185.563 11.9333 186.773 10.7376 186.773 8.30203V1.45288H181.179V3.06184H184.854V8.40535C184.854 9.67481 184.308 10.3095 183.245 10.3095C182.434 10.3095 181.755 9.89622 181.194 9.12865L180.101 10.4424C180.81 11.4019 181.991 11.9333 183.29 11.9333ZM196.983 11.7856H198.991L194.326 1.45288H192.437L187.787 11.7856H189.765L190.784 9.39435H195.95L196.983 11.7856ZM191.433 7.88872L193.367 3.37182L195.315 7.88872H191.433ZM207.582 1.45288V8.44964L201.885 1.45288H200.305V11.7856H202.209V4.78889L207.907 11.7856H209.486V1.45288H207.582Z" fill="white"/>
<path d="M113.151 29.5581H115.07V19.2253H113.151V29.5581ZM125.142 19.2253V26.2221L119.444 19.2253H117.865V29.5581H119.769V22.5613L125.467 29.5581H127.046V19.2253H125.142ZM137.271 19.2253L133.802 27.1963L130.363 19.2253H128.282L132.799 29.5581H134.688L139.19 19.2253H137.271ZM142.199 27.9491V25.1003H147.189V23.5208H142.199V20.8343H147.823V19.2253H140.28V29.5581H148.03V27.9491H142.199ZM153.372 29.7057C156.207 29.7057 157.55 28.2887 157.55 26.6354C157.55 22.8418 151.424 24.2736 151.424 22.0742C151.424 21.2919 152.073 20.6719 153.668 20.6719C154.568 20.6719 155.587 20.9376 156.517 21.4838L157.122 19.9929C156.221 19.4025 154.922 19.0777 153.682 19.0777C150.848 19.0777 149.52 20.4948 149.52 22.1628C149.52 26.0007 155.66 24.5393 155.66 26.7683C155.66 27.5358 154.981 28.1115 153.372 28.1115C152.103 28.1115 150.789 27.6392 149.963 26.9749L149.298 28.4658C150.155 29.2038 151.763 29.7057 153.372 29.7057ZM161.405 29.5581H163.323V20.8491H166.748V19.2253H157.98V20.8491H161.405V29.5581ZM179.495 29.5581L179.48 19.2253H177.901L173.871 26.0745L169.768 19.2253H168.188V29.5581H170.019V22.7975L173.414 28.3772H174.27L177.665 22.709L177.68 29.5581H179.495ZM184.205 27.9491V25.1003H189.194V23.5208H184.205V20.8343H189.829V19.2253H182.286V29.5581H190.036V27.9491H184.205ZM199.452 19.2253V26.2221L193.754 19.2253H192.175V29.5581H194.079V22.5613L199.777 29.5581H201.356V19.2253H199.452ZM206.221 29.5581H208.14V20.8491H211.565V19.2253H202.797V20.8491H206.221V29.5581Z" fill="white"/>
<path d="M117.934 47.4782C119.631 47.4782 121.078 46.873 122.037 45.7511L120.797 44.5702C120.045 45.3969 119.115 45.7954 118.037 45.7954C115.897 45.7954 114.347 44.2898 114.347 42.1642C114.347 40.0386 115.897 38.533 118.037 38.533C119.115 38.533 120.045 38.9315 120.797 39.7434L122.037 38.5772C121.078 37.4554 119.631 36.8502 117.949 36.8502C114.775 36.8502 112.413 39.0791 112.413 42.1642C112.413 45.2493 114.775 47.4782 117.934 47.4782ZM128.487 47.4782C131.69 47.4782 134.052 45.2345 134.052 42.1642C134.052 39.0939 131.69 36.8502 128.487 36.8502C125.284 36.8502 122.922 39.1086 122.922 42.1642C122.922 45.2197 125.284 47.4782 128.487 47.4782ZM128.487 45.7954C126.405 45.7954 124.855 44.275 124.855 42.1642C124.855 40.0533 126.405 38.533 128.487 38.533C130.568 38.533 132.118 40.0533 132.118 42.1642C132.118 44.275 130.568 45.7954 128.487 45.7954ZM147.393 47.3306L147.378 36.9978H145.798L141.769 43.8469L137.665 36.9978H136.086V47.3306H137.916V40.57L141.311 46.1497H142.167L145.562 40.4814L145.577 47.3306H147.393ZM154.435 36.9978H150.184V47.3306H152.103V44.3488H154.435C157.151 44.3488 158.834 42.9465 158.834 40.6733C158.834 38.3853 157.151 36.9978 154.435 36.9978ZM154.346 42.7251H152.103V38.6215H154.346C156.029 38.6215 156.9 39.3743 156.9 40.6733C156.9 41.9723 156.029 42.7251 154.346 42.7251ZM167.966 47.3306H169.973L165.309 36.9978H163.419L158.77 47.3306H160.748L161.766 44.9393H166.933L167.966 47.3306ZM162.416 43.4336L164.349 38.9167L166.298 43.4336H162.416ZM178.565 36.9978V43.9946L172.867 36.9978H171.287V47.3306H173.192V40.3338L178.889 47.3306H180.469V36.9978H178.565ZM191.74 36.9978H189.851L186.795 42.0313L183.769 36.9978H181.717L185.776 43.7141V47.3306H187.695V43.6846L191.74 36.9978Z" fill="white"/>
</g>
<defs>
<clipPath id="clip0_435_859">
<rect width="211.681" height="52" fill="white"/>
</clipPath>
</defs>
</svg>
