<svg width="156" height="44" viewBox="0 0 156 44" fill="none" xmlns="http://www.w3.org/2000/svg">
<path d="M59.776 21.304C60.608 21.304 61.2053 21.1973 61.568 20.984C62.08 20.7067 62.336 20.232 62.336 19.56C62.336 18.8453 62.0747 18.3653 61.552 18.12C61.2 17.9387 60.5813 17.848 59.696 17.848H57.76V21.304H59.776ZM56 16.344H59.76C61.2107 16.344 62.2027 16.4933 62.736 16.792C63.6853 17.3467 64.16 18.2587 64.16 19.528C64.16 21.192 63.424 22.2213 61.952 22.616C61.44 22.7547 60.7467 22.824 59.872 22.824H57.776V27H56V16.344ZM70.604 23.208C70.316 23.3147 70.0813 23.3893 69.9 23.432C69.6867 23.4853 69.308 23.5547 68.764 23.64C67.7187 23.8213 67.196 24.216 67.196 24.824C67.196 25.5813 67.6547 25.96 68.572 25.96C69.3933 25.96 69.9853 25.6507 70.348 25.032C70.5187 24.744 70.604 24.3067 70.604 23.72V23.208ZM65.724 21.368C66.2253 19.864 67.372 19.112 69.164 19.112C70.5933 19.112 71.5267 19.4907 71.964 20.248C72.156 20.5787 72.252 21.176 72.252 22.04L72.236 24.808C72.236 25.736 72.3853 26.4667 72.684 27H71.02C70.8813 26.7013 70.7853 26.4027 70.732 26.104C69.964 26.808 69.1 27.16 68.14 27.16C66.38 27.16 65.5 26.4187 65.5 24.936C65.5 23.9547 66.0067 23.2613 67.02 22.856C67.372 22.728 67.8467 22.6107 68.444 22.504C69.4893 22.344 70.2093 22.1893 70.604 22.04V21.864C70.604 20.8933 70.1027 20.408 69.1 20.408C68.108 20.408 67.5 20.824 67.276 21.656L65.724 21.368ZM78.6468 21.48C78.5188 20.744 77.9801 20.376 77.0308 20.376C76.0388 20.376 75.5428 20.648 75.5428 21.192C75.5428 21.4267 75.6654 21.6133 75.9108 21.752C76.1454 21.8907 76.6254 22.0453 77.3508 22.216C78.5988 22.4933 79.4254 22.7973 79.8308 23.128C80.2894 23.5013 80.5188 24.0027 80.5188 24.632C80.5188 25.4 80.2148 26.0133 79.6068 26.472C78.9988 26.9307 78.1988 27.16 77.2068 27.16C75.2014 27.16 74.0388 26.3547 73.7188 24.744L75.3668 24.488C75.5268 25.4373 76.1294 25.912 77.1748 25.912C78.2841 25.912 78.8388 25.56 78.8388 24.856C78.8388 24.4507 78.4814 24.1733 77.7668 24.024C76.1774 23.6613 75.1481 23.2987 74.6788 22.936C74.2094 22.5627 73.9748 22.0507 73.9748 21.4C73.9748 20.7173 74.2414 20.168 74.7747 19.752C75.3081 19.3253 76.0068 19.112 76.8708 19.112C78.8441 19.112 79.9641 19.816 80.2308 21.224L78.6468 21.48ZM81.625 16.344H83.273V20.216C83.9023 19.48 84.6917 19.112 85.641 19.112C86.697 19.112 87.433 19.4533 87.849 20.136C88.1263 20.584 88.265 21.2987 88.265 22.28V27H86.617V22.488C86.617 21.1227 86.1263 20.44 85.145 20.44C84.441 20.44 83.9237 20.712 83.593 21.256C83.3797 21.64 83.273 22.2053 83.273 22.952V27H81.625V16.344ZM95.4165 23.208C95.1285 23.3147 94.8938 23.3893 94.7125 23.432C94.4992 23.4853 94.1205 23.5547 93.5765 23.64C92.5312 23.8213 92.0085 24.216 92.0085 24.824C92.0085 25.5813 92.4672 25.96 93.3845 25.96C94.2058 25.96 94.7978 25.6507 95.1605 25.032C95.3312 24.744 95.4165 24.3067 95.4165 23.72V23.208ZM90.5365 21.368C91.0378 19.864 92.1845 19.112 93.9765 19.112C95.4058 19.112 96.3392 19.4907 96.7765 20.248C96.9685 20.5787 97.0645 21.176 97.0645 22.04L97.0485 24.808C97.0485 25.736 97.1978 26.4667 97.4965 27H95.8325C95.6938 26.7013 95.5978 26.4027 95.5445 26.104C94.7765 26.808 93.9125 27.16 92.9525 27.16C91.1925 27.16 90.3125 26.4187 90.3125 24.936C90.3125 23.9547 90.8192 23.2613 91.8325 22.856C92.1845 22.728 92.6592 22.6107 93.2565 22.504C94.3018 22.344 95.0218 22.1893 95.4165 22.04V21.864C95.4165 20.8933 94.9152 20.408 93.9125 20.408C92.9205 20.408 92.3125 20.824 92.0885 21.656L90.5365 21.368ZM102.266 16.344H104.026V20.632H108.954V16.344H110.714V27H108.954V22.152H104.042V27H102.266V16.344ZM114.665 23.144C114.665 24.936 115.363 25.832 116.761 25.832C117.39 25.832 117.897 25.5867 118.281 25.096C118.665 24.616 118.857 23.976 118.857 23.176C118.857 21.3627 118.158 20.456 116.761 20.456C115.363 20.456 114.665 21.352 114.665 23.144ZM112.969 23.24C112.969 21.9813 113.315 20.9787 114.009 20.232C114.691 19.4853 115.609 19.112 116.761 19.112C117.891 19.112 118.809 19.48 119.513 20.216C120.206 20.952 120.553 21.9227 120.553 23.128C120.553 24.3333 120.201 25.3093 119.497 26.056C118.803 26.792 117.891 27.16 116.761 27.16C115.619 27.16 114.702 26.8027 114.009 26.088C113.315 25.3733 112.969 24.424 112.969 23.24ZM121.656 16.344H123.32V27H121.656V16.344ZM129.007 20.408C127.716 20.408 127.071 21.2933 127.071 23.064C127.071 24.92 127.711 25.848 128.991 25.848C130.26 25.848 130.895 24.984 130.895 23.256C130.895 21.3573 130.266 20.408 129.007 20.408ZM132.479 27H130.943V25.96C130.399 26.76 129.631 27.16 128.639 27.16C127.69 27.16 126.906 26.7867 126.287 26.04C125.679 25.2933 125.375 24.3333 125.375 23.16C125.375 21.9227 125.668 20.936 126.255 20.2C126.842 19.4747 127.626 19.112 128.607 19.112C129.535 19.112 130.276 19.464 130.831 20.168V16.344H132.479V27ZM134.062 16.344H135.711V18.024H134.062V16.344ZM134.062 19.288H135.711V27H134.062V19.288ZM137.781 19.288H139.301V20.392C139.899 19.5387 140.741 19.112 141.829 19.112C142.896 19.112 143.637 19.48 144.053 20.216C144.224 20.536 144.331 20.8027 144.373 21.016C144.405 21.24 144.421 21.736 144.421 22.504V27H142.773V22.664C142.773 21.1813 142.283 20.44 141.301 20.44C140.576 20.44 140.059 20.728 139.749 21.304C139.536 21.6987 139.429 22.3067 139.429 23.128V27H137.781V19.288ZM150.069 20.408C148.799 20.408 148.165 21.2933 148.165 23.064C148.165 24.792 148.799 25.656 150.069 25.656C151.381 25.656 152.037 24.8347 152.037 23.192C152.037 21.336 151.381 20.408 150.069 20.408ZM148.517 27.8C148.613 28.4827 149.093 28.824 149.957 28.824C150.714 28.824 151.237 28.664 151.525 28.344C151.813 28.024 151.957 27.4533 151.957 26.632V25.88C151.359 26.6267 150.607 27 149.701 27C148.751 27 147.978 26.6373 147.381 25.912C146.773 25.176 146.469 24.2373 146.469 23.096C146.469 21.8907 146.773 20.9253 147.381 20.2C147.978 19.4747 148.773 19.112 149.765 19.112C150.703 19.112 151.477 19.5013 152.085 20.28V19.288H153.621V26.072C153.621 27.6613 153.317 28.7333 152.709 29.288C152.122 29.8427 151.274 30.12 150.165 30.12C148.597 30.12 147.551 29.6933 147.029 28.84C146.826 28.4773 146.725 28.1093 146.725 27.736L146.741 27.576L148.517 27.8Z" fill="black"/>
<path fill-rule="evenodd" clip-rule="evenodd" d="M6.44141 14.1995V6.4436H19.0312V19.0334H16.1938L9.23645 12.076L8.89765 11.7372L6.44141 14.1995Z" fill="#007D57"/>
<path fill-rule="evenodd" clip-rule="evenodd" d="M0 21.9979L8.89936 13.0985L17.7987 21.9979L15.7962 24.0064H5.48118V27.479L0 21.9979Z" fill="#49B751"/>
<path fill-rule="evenodd" clip-rule="evenodd" d="M6.44141 37.5585H14.1913L12.0799 35.4411L11.735 35.0962L19.0312 27.8061V24.9688H6.44141V37.5585Z" fill="#007D57"/>
<path fill-rule="evenodd" clip-rule="evenodd" d="M21.998 44L13.0986 35.0945L21.998 26.1952L24.0065 28.2037V38.5188H27.4792L21.998 44Z" fill="#49B751"/>
<path fill-rule="evenodd" clip-rule="evenodd" d="M37.5585 37.5585H24.9688V24.9688H27.8061L34.7574 31.92L35.1023 32.2588L35.4411 31.92L37.5585 29.8026V37.5585Z" fill="#007D57"/>
<path fill-rule="evenodd" clip-rule="evenodd" d="M44.0001 21.9538L35.1007 30.8532L26.1953 21.9538L28.2039 19.9453H38.5189V16.4727L44.0001 21.9538Z" fill="#49B751"/>
<path fill-rule="evenodd" clip-rule="evenodd" d="M37.5585 6.4436V19.0334H24.9688V16.1899L31.92 9.23864L32.2588 8.89985L31.92 8.56106L29.8026 6.4436H37.5585Z" fill="#007D57"/>
<path fill-rule="evenodd" clip-rule="evenodd" d="M30.9061 8.89936L22.0068 17.7987L19.9982 15.7902V5.48118H16.5195L22.0068 0L30.9061 8.89936Z" fill="#49B751"/>
</svg>
