<svg width="24" height="24" viewBox="0 0 24 24" fill="none" xmlns="http://www.w3.org/2000/svg">
<path d="M12 0C18.6274 0 24 5.37258 24 12C24 18.6274 18.6274 24 12 24C5.37264 24 0 18.6274 0 12C0 5.37258 5.37264 0 12 0ZM12 1.8C6.36672 1.8 1.8 6.3667 1.8 12C1.8 17.6333 6.36672 22.2 12 22.2C17.6333 22.2 22.2 17.6333 22.2 12C22.2 6.3667 17.6333 1.8 12 1.8ZM12 6C12.497 6 12.9 6.40295 12.9 6.9V11.1H17.1C17.597 11.1 18 11.5029 18 12C18 12.497 17.597 12.9 17.1 12.9H12.9V17.1C12.9 17.597 12.497 18 12 18C11.503 18 11.1 17.597 11.1 17.1V12.9H6.9C6.40296 12.9 6 12.497 6 12C6 11.5029 6.40296 11.1 6.9 11.1H11.1V6.9C11.1 6.40295 11.503 6 12 6Z" fill="#F5B458"/>
</svg>
